<?xml version="1.0" encoding="UTF-8"?>
<svg width="759px" height="732px" viewBox="0 0 759 732" version="1.1" xmlns="http://www.w3.org/2000/svg" xmlns:xlink="http://www.w3.org/1999/xlink">
    <title>pickmonster-wordmark-sq</title>
    <g id="Page-1" stroke="none" stroke-width="1" fill="none" fill-rule="evenodd">
        <g id="Extra-Large" transform="translate(-50.000000, -20.000000)" fill-rule="nonzero">
            <g id="pickmonster-wordmark-sq" transform="translate(50.000000, 20.000000)">
                <path d="M432.647367,55.1655978 C435.223125,55.8018732 437.767944,56.7917572 440.379381,57.0197062 C466.405801,59.2914942 491.299154,65.7695745 515.104781,76.5428044 C529.419948,83.0211245 542.889959,90.8297232 555.123891,101.025125 C552.831492,103.460481 550.45869,105.699444 548.203024,107.827795 C555.113979,119.815361 563.799426,129.22934 575.455798,136.372049 C576.438529,132.710049 577.599966,129.441762 578.162722,126.073616 C579.500945,118.063565 580.855399,110.034576 581.619593,101.958102 C582.124617,96.6203062 582.22831,91.0936993 581.420817,85.81832 C580.219179,77.9682393 578.024526,70.2717851 576.332544,62.4925763 C576.099637,61.4215236 576.325359,60.2508743 576.338739,59.1263329 C585.448992,68.4738343 591.237472,79.6313167 594.390264,92.2214592 C597.434655,104.378681 597.533455,116.752827 597.007246,129.157749 C596.789329,134.295485 596.249432,139.419466 596.023462,144.557063 C595.963997,145.911433 596.23983,147.439729 596.850591,148.639714 C602.859962,160.445493 607.96719,172.613562 611.570247,185.366351 C615.5327,199.390934 617.585131,213.674619 616.85389,228.425852 C615.780164,228.723667 614.749736,229.22055 613.702275,229.259169 C610.920524,229.361783 610.207742,230.985065 609.827719,233.428946 C608.207529,243.848962 605.971066,254.120938 602.068636,263.977848 C599.112762,271.443917 595.1513,278.317698 590.215469,284.96685 C588.705105,280.669333 587.576993,276.389268 585.738949,272.438891 C581.021902,262.300846 575.97668,252.315483 571.099014,242.251458 C570.458582,240.930106 569.701944,240.677967 568.287778,241.111011 C565.149667,242.071946 561.973522,242.960841 558.75631,243.590943 C557.021277,243.93075 556.424948,244.814106 556.089773,246.361542 C553.9378,256.295783 550.755894,265.886938 545.783456,274.779663 C542.593745,280.484095 539.036774,285.983486 535.374436,292.019741 C533.726743,288.745977 532.45641,285.921101 530.929816,283.242006 C525.172369,273.138217 519.348891,263.071747 513.474805,253.035325 C513.15716,252.492519 512.171765,252.299886 511.460594,252.047128 C511.184264,251.94894 510.779712,252.073771 510.478854,252.202688 C507.1813,253.615822 502.589255,252.060496 500.39801,255.485395 C498.445494,258.537253 497.92771,262.46603 496.286398,265.76421 C492.698763,272.973497 488.799802,280.028059 484.906169,287.375825 C479.360568,278.102259 474.101579,269.307876 468.647407,260.187086 C470.143648,258.229165 471.92935,255.917728 473.688789,253.586394 C486.62014,236.451251 491.667779,217.154693 488.721382,195.987355 C487.673673,188.460588 485.253485,181.124504 483.564042,173.359197 C483.435882,169.680255 483.781959,166.172701 482.855473,163.040913 C480.666086,155.639642 478.125727,148.316076 475.270511,141.142576 C468.572889,124.315661 457.495996,110.837629 442.739112,100.432993 C430.859218,92.0568628 417.464251,87.0612259 403.411601,83.722601 C400.308735,82.9854447 397.137578,82.535288 393.997856,81.9529805 C397.468293,87.0734492 401.222462,91.5965559 402.570875,98.1051243 C389.530162,94.0854618 376.509581,93.1466527 363.393019,94.498516 C350.311949,95.8467582 337.711778,99.0528769 326.273446,106.008368 C333.77181,106.963872 340.930508,108.714679 347.535185,112.26718 C342.032945,116.482492 336.593763,120.566892 331.246969,124.768603 C325.769103,129.073284 321.261178,134.309983 317.37222,140.050048 C313.606995,145.607475 310.026206,151.29136 307.88532,157.73875 C309.117063,157.114636 310.160591,156.398801 311.061062,155.534228 C317.502456,149.349577 324.907874,144.535061 332.748692,140.367884 C345.114501,133.795816 358.304714,129.433345 371.940703,126.491652 C375.291992,125.768668 378.919393,126.323388 382.419873,126.29071 C378.060239,128.266719 373.642782,130.125646 369.351596,132.240381 C355.783404,138.926961 344.736585,148.569546 336.966507,161.53844 C327.273676,177.716407 323.362326,195.30706 325.34603,214.167758 C327.010634,229.99433 333.299864,243.904695 342.062677,256.992819 C348.787493,267.036978 355.436243,277.084014 364.001612,285.708663 C373.701009,295.475121 385.072596,302.922839 396.994365,309.617635 C398.974507,310.729613 401.057599,311.671981 402.970223,312.886046 C404.339853,313.755476 405.203435,313.496158 406.181087,312.349026 C411.533518,306.068925 416.928751,299.825245 422.301592,293.562442 C422.731695,293.06104 423.103324,292.509538 423.887991,291.47025 C425.732385,295.734317 427.573836,299.552806 429.051123,303.50705 C431.431729,309.879275 433.686962,316.304694 435.745586,322.786743 C436.376603,324.773629 437.698381,324.979908 439.240801,325.373343 C440.718893,325.750346 441.711782,325.414438 442.7043,324.155688 C449.838996,315.107463 457.131336,306.176582 462.39559,295.831144 C462.541528,295.544314 462.822132,295.325936 463.188093,294.905424 C471.139573,305.825449 475.743201,318.106962 479.637764,331.489095 C490.993959,317.258017 499.073723,301.531026 508.025588,285.875364 C511.615947,291.579177 515.187724,297.059412 518.560352,302.659312 C523.060288,310.130827 526.37884,318.139671 528.717077,326.532976 C529.22018,328.338987 530.101076,328.771289 531.802102,328.465491 C534.702723,327.944098 537.653332,327.6694 540.524281,327.028714 C541.589211,326.791088 542.865243,326.04129 543.407681,325.141503 C550.898055,312.717272 557.589607,299.899173 562.034846,286.024055 C562.625786,284.179547 563.092405,282.295214 563.624869,280.399894 C567.649328,284.831744 574.628917,295.2927 580.691248,319.847154 C586.707928,318.204284 592.720086,316.562652 599.280752,314.771215 C598.718741,316.404368 598.252679,317.758614 597.525898,319.344267 C595.323998,321.44995 593.332953,323.27586 591.451797,325.208499 C587.522855,329.245119 583.694137,333.379556 579.748843,337.399899 C569.600667,347.741439 558.102374,356.392392 545.872159,364.093147 C531.108771,373.388839 515.431719,380.786984 498.9136,386.41068 C487.345559,390.349111 475.616527,393.752566 463.509207,395.479266 C452.29127,397.079153 441.028609,398.602081 429.732035,399.34572 C419.317007,400.031306 408.852641,399.500692 398.44929,398.058686 C385.541755,396.269571 373.011424,393.251845 360.993984,388.131284 C341.924451,380.005839 326.065347,367.927542 314.279854,350.739669 C312.946121,348.794498 311.563453,346.882778 310.203487,344.955554 C309.991331,345.061819 309.779175,345.168084 309.56702,345.27435 C310.819235,349.07817 311.994672,352.909285 313.337634,356.68083 C317.852064,369.359274 323.436472,381.502401 331.583166,392.325692 C332.939756,394.127929 334.417817,395.838847 335.75217,397.7428 C332.09519,403.771721 328.089129,409.433449 325.04291,415.570801 C317.599428,430.567428 312.462375,446.424016 308.732922,462.734289 C303.130209,487.237096 300.490959,512.105115 300.209767,537.191977 C300.035087,552.775444 300.622774,568.367453 300.868286,583.955625 C281.503191,583.971097 262.138125,583.991335 242.773029,584 C235.838473,584 228.903948,583.977224 221.969393,583.965279 C221.059166,583.963732 220.14894,583.965093 218.942098,583.965093 C218.942098,582.831207 218.942098,581.93046 218.942098,581.029651 C218.942098,526.273405 218.948912,471.517222 218.939063,416.761008 C218.93451,391.582548 218.897344,366.404058 218.897406,340.750778 C218.747844,324.820263 218.575827,309.364598 218.403779,293.908933 C218.392444,293.61771 218.381108,293.326455 218.389285,292.644427 C218.574526,290.328906 218.866155,288.40552 218.886907,286.479194 C219.144281,262.539091 218.120667,238.57086 220.455033,214.677422 C220.977246,209.332417 221.550098,203.989051 222.264212,198.666976 C223.268406,191.182773 224.539731,183.732873 225.448378,176.238258 C225.716376,174.027656 226.608112,173.214978 228.6458,172.84486 C237.128815,171.303954 245.328316,168.926744 252.970729,164.7682 C262.208834,159.741387 269.114462,152.4468 274.230672,143.39873 C279.33697,134.368144 280.45195,124.595512 278.777002,114.521663 C277.98992,109.787573 276.527871,105.16552 275.300247,100.204124 C274.643741,100.745011 274.4362,100.830435 274.417709,100.946045 C274.338422,101.441599 274.266103,101.947193 274.277966,102.447063 C274.542928,113.596376 270.862193,123.395976 264.203285,132.216615 C263.450364,133.213988 262.896002,133.758249 261.556756,133.295977 C255.823065,131.316936 250.04273,129.472011 244.322139,127.457058 C243.673623,127.228622 242.932936,126.27957 242.850459,125.591044 C242.381145,121.674258 242.133805,117.731602 241.737151,113.805193 C241.557763,112.029445 241.207814,110.270887 240.894846,108.24269 C240.212416,108.661794 239.811023,108.811939 239.539866,109.08919 C235.128169,113.600445 230.89617,118.30393 226.270428,122.582865 C223.655428,125.001836 220.399315,126.728954 217.424827,128.759672 C217.417673,128.751658 217.401288,128.737547 217.390944,128.524444 C218.063617,124.681509 218.919984,121.073801 219.388152,117.416505 C220.048808,112.255374 220.644487,107.066347 220.851005,101.872709 C221.029092,97.3944108 220.624138,92.8929657 220.461692,87.9365054 C219.182407,88.7615299 218.423044,89.2497488 217.665136,89.7402274 C211.86755,93.4921843 206.072906,97.2487991 200.270519,100.99336 C199.105489,101.7452 197.960033,102.430725 196.636087,101.157353 C194.326902,98.9364305 191.980303,96.7521933 189.593038,94.6154415 C188.545142,93.6775293 188.341782,92.8007338 189.046667,91.531401 C190.725207,88.5087246 192.305629,85.4311052 193.897077,82.360913 C194.889657,80.4460672 195.830174,78.5043153 197.044727,76.0728584 C195.70957,76.1411694 194.984523,76.0967636 194.292245,76.2266861 C189.0895,77.2031862 183.903666,78.2766066 178.684259,79.1509264 C177.839786,79.2923604 176.41797,78.882293 176.001292,78.2451815 C170.750944,70.2171286 165.224933,62.3282896 160.579911,53.9550063 C152.939,40.1813026 147.923572,25.338666 144.278719,10.0244078 C143.832556,8.14976785 143.836629,6.56404953 144.929077,5 C151.739684,16.0707473 158.980612,26.8203819 167.608869,36.6027072 C177.605593,47.9364749 188.873008,57.7434167 201.943268,65.3579672 C220.156714,75.9688523 239.851534,82.3838742 260.683975,85.3169338 C266.269157,86.1033079 271.81643,85.7251603 277.228698,82.7348834 C290.107986,76.295353 303.638207,72.6705332 316.933537,68.3837536 C320.319484,67.2920295 323.626205,65.9550665 326.969348,64.7307819 C330.25792,64.1504624 333.546522,63.5701429 337.223912,62.9156331 C339.272626,62.6034213 340.951569,62.4564173 342.58935,62.1131754 C357.649354,58.9568626 372.868025,56.9428851 388.197699,55.7119162 C388.640997,55.7250911 389.084294,55.7382656 389.923379,55.7507059 C393.655929,55.4659037 396.989936,54.985266 400.330044,54.9384924 C407.389478,54.8396543 414.452133,54.9557366 421.513301,55.0072679 C425.224821,55.0343525 428.936032,55.1112121 432.647367,55.1655978 M279.412232,413.827267 C277.339174,409.960164 275.266147,406.093091 273.340856,402.501615 C271.303819,406.174755 269.518704,410.183401 267.042086,413.706891 C260.409349,423.143476 248.457321,423.190079 241.679482,413.954049 C239.444938,410.909061 237.457238,407.6832 235.040024,404.066225 C235.668996,407.496447 236.049731,410.411125 236.753253,413.245873 C238.56302,420.538154 241.506691,427.422302 249.33481,429.706786 C253.895822,431.037854 254.521573,433.861585 254.932815,437.486389 C254.96134,437.737663 254.929161,437.998219 254.976733,438.244542 C256.241213,444.795041 258.275804,450.853762 263.797804,455.311853 C272.056925,461.979819 282.200053,458.028483 286.334306,451.663376 C290.030681,445.972529 291.308603,439.606245 292.066387,433.031826 C292.15447,432.268041 292.82798,431.097795 293.442985,430.938954 C303.929681,428.230709 308.293898,420.647235 309.802032,410.732829 C310.0359,409.195482 310.185617,407.645385 310.374234,406.101168 C308.372721,408.668612 306.885772,411.313512 305.122864,413.759869 C299.803976,421.140839 290.619329,423.033281 283.817486,418.143909 C282.25924,417.023762 281.00752,415.477904 279.412232,413.827267 M556.913248,170.767275 C556.5305,174.14455 557.622685,177.037428 560.343608,178.986761 C562.092144,180.239508 564.250373,180.926162 566.236338,181.841902 C567.983946,182.64774 569.8612,183.236113 571.482195,184.241021 C575.971786,187.024415 577.983891,191.623941 579.798893,196.282524 C580.914307,199.145509 581.832059,202.085361 582.838638,204.990679 C583.07074,204.995135 583.302903,204.999576 583.535005,205.004016 C584.04771,202.403445 584.70784,199.821704 585.043201,197.198496 C585.811484,191.190107 586.580697,185.155492 584.763651,179.181483 C582.46896,171.636597 578.669356,165.164637 570.939386,162.175489 C564.301972,159.608865 562.110665,159.816985 558.457557,165.794956 C557.649072,167.117962 557.44881,168.812 556.913248,170.767275 M310.634122,404.996546 C310.634122,404.996546 310.798995,405.097753 310.798995,405.097753 C310.798995,405.097753 310.778692,404.886782 310.634122,404.996546 Z" id="Shape" fill="#4580BC"></path>
                <path d="M301.907036,583.968255 C301.444571,568.289567 300.85681,552.638711 301.031511,536.996427 C301.312738,511.814881 303.95232,486.853004 309.555736,462.257718 C313.285657,445.885886 318.423355,429.969452 325.867771,414.916224 C328.914372,408.755708 332.920936,403.072611 336.738735,397 C338.202268,397.835189 339.38668,398.883587 340.638681,399.843365 C347.251094,404.912184 353.705222,410.216761 360.575352,414.907837 C364.202434,417.384487 368.564814,418.778323 372.595198,420.661009 C374.770705,434.579674 376.946211,448.498338 378.874749,462.640368 C362.721214,464.397192 346.814648,465.930651 330.908052,467.464109 C330.84037,467.626873 330.772688,467.789637 330.704976,467.952401 C347.680601,472.12754 364.656226,476.302742 381.631851,480.477882 C382.416059,485.290534 383.261723,490.094116 383.970475,494.917888 C385.121061,502.748814 386.182005,510.593034 387.018438,518.642884 C383.99476,519.078246 381.231988,519.285925 378.472314,519.529387 C367.787792,520.471864 357.104789,521.431425 346.420206,522.373157 C339.558316,522.977992 332.69466,523.562824 325.665873,524.111002 C325.084834,524.065403 324.669761,524.065403 324.254658,524.065403 C324.249949,524.186296 324.24521,524.30725 324.240502,524.428143 C324.769688,524.574257 325.298906,524.72031 326.014317,524.931717 C334.204346,526.805177 342.190866,528.695288 350.215919,530.403065 C363.546589,533.239814 376.902039,535.959584 390.24702,538.728619 C391.612267,546.640554 393.048015,554.541059 394.318818,562.468214 C395.214631,568.056107 395.905881,573.677608 396.645237,579.28979 C396.840135,580.769139 396.874549,582.269734 397,584 C365.169522,584 333.646755,584 301.907036,583.968255 Z" id="Path" fill="#E8932C"></path>
                <path d="M218.825813,128.205258 C221.798151,126.163015 225.059756,124.432925 227.679167,122.009791 C232.312711,117.723491 236.551849,113.01191 240.970987,108.49289 C241.242602,108.215162 241.644671,108.064758 242.328252,107.644933 C242.641748,109.676621 242.992288,111.438206 243.171978,113.21701 C243.569301,117.150178 243.817058,121.09962 244.287164,125.023147 C244.36978,125.712858 245.111717,126.663544 245.761326,126.892373 C251.491566,128.910794 257.28165,130.758895 263.025013,132.741342 C264.366518,133.20441 264.921815,132.659212 265.676006,131.660123 C272.346145,122.824301 276.033088,113.007833 275.767679,101.839331 C275.755797,101.3386 275.828238,100.832135 275.907659,100.335729 C275.92618,100.21992 276.134072,100.134349 276.791685,99.5925305 C278.021379,104.562466 279.485894,109.192475 280.274305,113.934713 C281.952078,124.025902 280.835217,133.815354 275.720306,142.861484 C270.595466,151.925127 263.678191,159.23227 254.424504,164.267736 C246.7692,168.433438 238.555869,170.814739 230.058545,172.358297 C228.017421,172.729052 227.12418,173.543129 226.855731,175.757536 C225.945551,183.265051 224.672082,190.727774 223.666194,198.224859 C222.950876,203.556095 222.377057,208.908657 221.853964,214.262863 C219.515661,238.197426 220.541001,262.206912 220.283192,286.188221 C220.262406,288.117863 219.970285,290.04456 219.794286,292.217754 C211.945797,290.265856 204.15346,291.354887 196.615271,293.535026 C188.17255,295.976697 179.950439,299.17984 171.360478,302 C171.019137,301.875852 170.949675,301.803378 170.880228,301.730904 C173.605538,293.148074 175.885579,284.392027 179.149231,276.018652 C185.863688,258.791679 197.471128,245.27684 212.366822,234.467157 C214.731061,232.751465 216.937419,230.818569 219.609477,228.67039 C196.095807,219.388828 173.16247,223.731096 149.986915,228.941563 C162.848619,192.94821 187.907668,169.553312 223.127309,155.563688 C219.487615,153.218406 216.391801,151.120165 213.198387,149.182448 C190.586644,135.462059 172.996384,117.038274 160.576165,93.6481178 C152.034105,77.561446 146.256662,60.5962608 143.764171,42.5632008 C143.164743,38.2263192 143.069778,33.7987058 143.029571,29.4101967 C142.948165,20.5247775 143.054763,11.6375066 143.110326,2.75116112 C143.115631,1.90002271 143.307282,1.05004277 143.412422,0.199523972 C143.68219,0.133013104 143.951959,0.0665068057 144.221742,0 C144.865179,1.28256443 145.50863,2.56512937 146.176342,4.03612069 C145.106327,5.79128106 145.102248,7.37972876 145.549163,9.2575954 C149.200164,24.5982128 154.224051,39.4663968 161.87785,53.2638081 C166.530707,61.6515037 172.066039,69.5539211 177.325243,77.5957921 C177.742623,78.2340001 179.166838,78.6447734 180.012735,78.5030959 C185.240946,77.6272712 190.435526,76.5520033 195.647046,75.5738224 C196.340493,75.4436762 197.066762,75.4881585 198.404172,75.4197299 C197.18757,77.8553718 196.245466,79.800466 195.251212,81.7186076 C193.65708,84.7940844 192.073992,87.8770009 190.392621,90.9048801 C189.686548,92.1763977 189.89025,93.0547024 190.939913,93.9942289 C193.331205,96.1346585 195.681762,98.3226553 197.994842,100.547401 C199.321021,101.822964 200.46841,101.136259 201.635405,100.383126 C207.447578,96.632119 213.251996,92.8690383 219.059361,89.1106234 C219.818547,88.6193006 220.579191,88.1302414 221.860633,87.3037969 C222.023354,92.2687884 222.428991,96.7779814 222.250604,101.263987 C222.043737,106.466565 221.447054,111.664524 220.785283,116.834538 C220.316325,120.498129 219.458514,124.112046 218.703982,127.987573 C218.697715,128.219781 218.76178,128.212512 218.825813,128.205258 Z" id="Path" fill="#255387"></path>
                <path d="M372.453149,419.92238 C368.199519,418.070406 363.835291,416.679899 360.206672,414.209165 C353.333632,409.529293 346.87677,404.237385 340.261556,399.180673 C339.009025,398.223187 337.824111,397.177293 336.447594,396.193065 C334.864444,394.45841 333.385572,392.745137 332.028237,390.940418 C323.877069,380.102225 318.289594,367.94238 313.772685,355.24648 C312.428985,351.469742 311.252903,347.633352 310,343.824294 C310.212272,343.717883 310.424545,343.611471 310.636817,343.50506 C311.99753,345.434937 313.380957,347.349289 314.715422,349.297139 C326.507388,366.508677 342.3752,378.603603 361.455206,386.740235 C373.479245,391.867846 386.016457,394.889727 398.931081,396.681306 C409.340145,398.125297 419.810258,398.656641 430.231005,397.970111 C441.533783,397.225448 452.802628,395.700424 464.026726,394.098334 C476.140695,392.369257 487.876168,388.961116 499.450562,385.017262 C515.977751,379.385823 531.663413,371.977492 546.434908,362.669002 C558.671839,354.957644 570.176447,346.294781 580.330196,335.939002 C584.277657,331.913124 588.108477,327.772994 592.039576,323.730817 C593.921766,321.795517 595.913904,319.967093 598,318 C595.205503,326.951389 590.550013,335.130195 585.166908,342.872975 C577.441989,353.984169 568.845421,364.357517 558.10202,372.75711 C554.639965,375.463939 553.507515,379.363016 552.88582,383.389266 C550.751816,397.210667 543.668425,408.156883 533.493418,417.358807 C532.681824,418.092748 531.814513,418.768402 530.94305,419.431599 C530.414631,419.833694 529.828325,420.15959 528.876477,420.771471 C528.248585,412.395181 527.962373,404.214175 524.159009,396.677432 C520.037453,397.996017 517.128919,400.447384 515.92036,404.751253 C512.91638,415.448545 506.448176,423.945191 498.690596,431.599222 C494.274957,435.956048 489.344721,439.608309 483.746865,442.320065 C482.861147,442.74915 481.93911,443.103308 480.543442,443.702732 C482.866477,433.390491 482.925665,423.564136 480.073219,413.717113 C477.596047,414.157322 475.180232,414.480616 472.831415,415.070651 C472.155179,415.240494 471.504108,416.087076 471.12524,416.778781 C464.027284,429.737921 453.697705,439.148701 440.180694,445.074646 C438.05549,446.00635 435.89307,446.853086 433.116236,448 C435.763258,439.185762 436.846808,430.803398 435.927281,421.864218 C433.818595,422.041777 431.683506,422.322897 429.542003,422.385957 C411.543688,422.915907 393.548998,423.304429 375.698685,420.176076 C374.704847,420.001894 373.683306,419.985812 372.453149,419.92238 Z" id="Path" fill="#255387"></path>
                <path d="M303.692147,711.254724 C300.704127,717.493481 297.788312,723.555912 294.688957,730 C287.048722,717.856776 281.166742,705.159865 274.880641,692.176774 C272.97985,704.591738 271.14902,716.549735 269.24534,728.983558 C264.568933,727.599027 260.110865,726.313708 255.675327,724.953078 C253.031181,724.141965 250.452601,723.098324 247.786969,722.377335 C246.082598,721.916323 245.80595,721.0988 246.104423,719.457031 C248.514063,706.203818 250.920752,692.949049 253.174946,679.668139 C255.316421,667.051455 257.271558,654.402469 259.313133,641.76842 C259.461601,640.849694 259.647079,639.937131 259.865938,638.746416 C266.311543,638.746416 272.741102,638.687226 279.165713,638.839838 C279.794719,638.854714 280.635239,640.072254 280.968816,640.900358 C284.022924,648.48207 287.024315,656.086312 289.962262,663.715014 C291.672042,668.154661 293.237873,672.651194 294.868502,677.122085 C295.098581,677.127562 295.328661,677.133039 295.55874,677.138578 C297.33633,671.725436 299.088284,666.303517 300.898273,660.901515 C303.04608,654.491161 305.276391,648.108878 307.400068,641.690433 C308.031565,639.781842 309.041854,638.877743 311.157786,638.714238 C315.490195,638.379511 319.816549,637.811384 324.10328,637.084855 C326.356306,636.703013 327.127387,637.620867 327.508055,639.616221 C328.711416,645.924376 329.959869,652.224129 331.241244,658.5166 C335.406496,678.970241 339.594986,699.419091 343.768015,719.871114 C343.867793,720.360259 343.89097,720.865461 344,721.78705 C335.76242,724.392544 327.52739,726.997228 318.558535,729.834006 C316.694508,717.430806 314.885748,705.395257 312.986925,692.760275 C309.78275,699.124508 306.773551,705.101422 303.692147,711.254724 Z" id="Path" fill="#265387"></path>
                <path d="M439.34646,196.724052 C443.410176,194.558542 447.903581,192.667271 450.051903,188.372401 C451.892935,184.691993 452.828213,180.550284 454.080683,176.586149 C454.377947,175.645265 454.341904,174.598722 454.467317,173.531138 C468.024662,192.824991 467.947717,222.732932 448.872688,243.287191 C428.462246,265.28043 395.979118,266.584733 373.398612,248.358694 C351.836325,230.954556 346.529549,198.272358 361.515768,174.856218 C376.144291,151.998999 406.75225,140.693839 434.587159,156.042287 C431.748389,156.648554 428.792201,157.035061 425.996639,157.926795 C419.767902,159.913684 416.61157,164.881868 414.410352,170.636388 C414.020827,171.65473 413.714245,172.70491 413.144381,173.729967 C409.101085,173.807117 405.171793,173.338963 401.483424,174.077629 C384.803545,177.418138 374.311347,194.000961 377.558002,210.765456 C380.966452,228.365604 396.827517,239.408878 414.104047,236.140682 C432.354757,232.688183 442.749527,216.280823 439.34646,196.724052 Z" id="Path" fill="#E9932C"></path>
                <path d="M452.422195,721.203642 C452.407049,722.280216 452.390289,723.11924 452.377253,723.958264 C452.353789,725.47007 451.576182,726.244861 450.059082,726.352161 C442.555645,726.882758 435.052921,727.423506 427,728 C427.619472,698.207977 428.235624,668.57752 428.85792,638.651371 C434.225499,638.651371 439.272961,638.587569 444.314959,638.724586 C445.018697,638.743659 445.871104,639.62772 446.35783,640.317237 C454.796109,652.271835 463.188453,664.258242 471.588929,676.239112 C472.071496,676.927336 472.537799,677.62682 473.36848,678.843795 C473.36848,665.003439 473.36848,651.7066 473.36848,638 C482.361642,638.571142 491.016375,639.120749 499.996068,639.69103 C500.07962,654.149533 498.813239,668.483447 497.94761,682.838034 C497.080306,697.221476 496.451181,711.619131 495.700763,726.342563 C492.45104,726.342563 488.928748,726.3852 485.409685,726.29968 C484.836551,726.285775 484.163602,725.814428 483.728646,725.370029 C476.904489,718.395985 470.074808,711.426556 463.326631,704.380527 C459.679507,700.572465 456.184032,696.621787 452.422257,692.519571 C452.422257,702.28509 452.422257,711.625591 452.422195,721.203642 Z" id="Path" fill="#255387"></path>
                <path d="M343.518463,679.673668 C344.921365,670.762149 347.648004,662.585504 353.035503,655.512563 C362.188945,643.495484 373.874198,635.832688 389.452025,636.002774 C400.517842,636.123531 408.793315,641.590184 414.625004,650.927785 C426.429918,669.829645 423.422716,697.617276 410.162228,714.724441 C399.969731,727.873572 382.140996,733.339667 366.309749,727.929711 C358.458728,725.246705 352.943511,719.647164 348.974716,712.462194 C343.331535,702.246062 342.150139,691.281747 343.518463,679.673668 M396.200133,679.292521 C396.446891,675.383507 395.593308,671.787309 393.232375,668.591258 C390.686063,665.144287 384.400053,662.334769 380.884711,664.097526 C377.532315,665.778521 374.082226,668.242544 372.02754,671.276183 C369.55965,674.92004 368.224479,679.441625 366.93848,683.743978 C365.216286,689.505806 366.206572,695.012629 369.671689,700.057903 C372.134932,703.644446 379.967083,706.016865 384.203923,702.936991 C392.136681,697.170459 396.188545,689.56244 396.200133,679.292521 Z" id="Shape" fill="#265488"></path>
                <path d="M382.887428,125.23099 C379.175824,125.262802 375.541184,124.709427 372.183208,125.430657 C358.520008,128.365216 345.303473,132.717108 332.912987,139.273237 C325.056523,143.430308 317.636327,148.233147 311.182079,154.4028 C310.279812,155.265276 309.234201,155.979375 308,156.601976 C310.145158,150.170222 313.733092,144.500121 317.505831,138.956172 C321.402549,133.230027 325.919471,128.006029 331.408268,123.711787 C336.765731,119.520266 342.215767,115.445771 347.728988,111.240682 C341.111131,107.696796 333.938148,105.950236 326.42482,104.997049 C337.885977,98.0584261 350.511293,94.8600828 363.618466,93.5151103 C376.761203,92.1665256 389.807767,93.1030578 402.874503,97.112972 C401.523399,90.620188 397.761739,86.1080506 394.284377,81 C397.430364,81.5808953 400.60785,82.0299602 403.716907,82.7653288 C417.7976,86.0958569 431.219297,91.0793786 443.122898,99.4351951 C457.90923,109.814598 469.008227,123.259944 475.719215,140.046051 C478.580128,147.202153 481.125556,154.507959 483.319312,161.89128 C484.247647,165.015473 483.900879,168.51452 484,172 C479.960063,163.127822 474.65607,155.011479 467.839072,147.884796 C458.445799,138.064802 447.336747,130.850911 434.532088,126.22298 C418.025416,120.256992 401.361994,120.139964 384.569596,124.919374 C384.08653,125.056884 383.584688,125.129135 382.887428,125.23099 Z" id="Path" fill="#255387"></path>
                <path d="M704.299135,728.043544 C701.187313,727.661137 698.299941,727.293087 695.178264,726.895143 C695.178264,724.269136 695.203971,721.679424 695.174102,719.090396 C694.976889,701.981292 694.79406,684.871941 694.550819,667.763521 C694.434034,659.548586 694.197158,651.335391 694.010841,643.121575 C693.983052,641.897414 693.881875,640.922722 695.693269,640.748765 C708.12948,639.554374 720.52768,637.777641 732.986904,637.052666 C745.899069,636.301401 756.619982,643.591737 757.874382,658.658666 C758.735152,668.997439 755.08225,677.717277 748.761897,685.443965 C745.797647,689.067723 742.422324,692.344871 738.974346,696.057937 C742.190773,698.631055 745.56475,701.309268 748.915835,704.016692 C752.231664,706.695775 755.52454,709.40413 759,712.240328 C754.041344,718.424214 749.180438,724.486162 743.957179,731 C735.630178,723.773306 727.456136,716.679301 718.812689,709.17803 C718.812689,716.332693 718.812689,723.03615 718.812689,729.915987 C713.753039,729.258071 709.138312,728.658017 704.299135,728.043544 M731.970543,670.260755 C733.685534,663.7054 729.831073,661.665339 725.188925,661.757818 C722.855731,661.804306 720.22017,662.324871 718.350873,663.589926 C717.383907,664.244237 717.779434,666.990691 717.583078,668.794583 C717.500998,669.548644 717.46764,670.308982 717.433608,671.067456 C717.258675,674.967841 717.090659,678.868599 716.909544,683.015097 C723.737925,680.730166 729.281852,677.528281 731.970543,670.260755 Z" id="Shape" fill="#265387"></path>
                <path d="M182.344822,681.192836 C182.230723,678.230968 182.031369,675.510387 182.021856,672.789182 C181.984352,662.057742 182.006488,651.326178 182.006488,640.187198 C190.340684,639.323197 199.211471,638.403529 208.308687,637.460431 C208.308687,644.356068 208.308687,651.036657 208.308687,657.717246 C208.473037,657.78947 208.637386,657.861631 208.801736,657.933855 C211.714625,653.79185 214.644985,649.662591 217.534944,645.503779 C219.886026,642.120562 222.292603,638.769772 224.468663,635.270222 C225.537849,633.550655 226.307578,633.693979 227.468636,634.999882 C233.169917,641.412568 238.891352,647.806448 245,654.648603 C235.811583,664.707098 226.871245,674.494066 217.543878,684.704694 C221.812056,688.875626 226.13399,693.167202 230.530994,697.376558 C234.900465,701.559548 239.34528,705.659944 243.740393,709.780894 C238.868209,717.194343 234.089725,724.465282 229.137866,732 C221.886028,724.722377 216.127271,716.200764 207.864304,709.164991 C207.864304,715.185506 207.864304,720.482157 207.864304,726.126432 C199.482602,727.28895 191.362243,728.415168 182.987005,729.576812 C182.772101,713.415457 182.559453,697.424666 182.344822,681.192836 Z" id="Path" fill="#E9932D"></path>
                <path d="M123.999086,641.179817 C138.491523,631.316417 153.375285,634.001485 165.415411,643.995896 C168.319848,646.406865 171.046979,649.030981 173.898381,651.595569 C170.792235,655.977768 168.189624,659.682057 165.552116,663.361381 C162.954233,666.985329 160.321003,670.584066 157.584509,674.357607 C155.73154,672.59655 153.919855,670.871422 152.104543,669.150009 C144.939568,662.355542 137.405453,664.577768 133.301711,672.192059 C129.606641,679.048099 128.72003,686.454817 132.039945,693.880118 C134.747666,699.936157 141.03155,702.401635 146.762724,699.160561 C151.053632,696.734045 154.873408,693.476123 159.483474,690.1723 C165.119538,696.895718 171.085365,704.012541 177,711.068286 C163.858455,728.597206 143.876332,734.234691 126.107326,726.802762 C114.6731,722.020284 108.368675,712.625238 105.16731,701.051699 C101.147253,686.518371 102.812869,672.392694 109.389572,658.945485 C112.784226,652.004583 117.598497,646.000019 123.999086,641.179817 Z" id="Path" fill="#E9932C"></path>
                <path d="M14.6652015,639.434755 C23.1676495,638.600322 31.4254616,637.468756 39.7185594,637.052845 C46.4535592,636.715042 52.9480385,637.902639 57.9261343,643.361094 C62.0156956,647.845318 64.2453317,653.111303 64.8244766,659.069933 C66.6094832,677.435862 54.649416,698.608629 34.8995053,705.468296 C31.8996035,706.510187 28.7396194,707.083246 25.8350007,707.826761 C25.8350007,713.020857 25.7545474,718.168623 25.8558886,723.312782 C25.9757288,729.39585 26.0473494,729.360029 19.9885349,728.718626 C13.9843993,728.082945 7.97202389,727.52649 1.55927749,726.895535 C1.04123225,698.349929 0.523278943,669.809112 0,640.975329 C4.97774121,640.448351 9.70677618,639.947678 14.6652015,639.434755 M39.5377125,665.997695 C38.633786,664.742314 37.9513502,663.193966 36.7795562,662.292868 C34.3821153,660.449316 27.2860303,660.866595 24.9934918,662.832657 C24.5418794,663.219899 24.4187406,664.172551 24.4023924,664.870607 C24.3209909,668.346086 24.319719,671.823679 24.302554,675.300526 C24.2911309,677.613657 24.3003804,679.926974 24.3003804,682.270389 C28.2690846,681.593415 31.7764723,679.536 35.53067,675.661525 C38.0088421,673.103873 39.6523266,670.14082 39.5377125,665.997695 Z" id="Shape" fill="#E9932D"></path>
                <path d="M671.355524,690.498009 C666.618856,690.916494 662.109027,691.297004 657.479732,691.687639 C657.479732,694.191144 657.479732,696.514027 657.479732,699.025003 C667.2887,698.009201 677.027937,697.000624 686.939773,695.974139 C686.669984,705.635065 686.408032,715.017185 686.137873,724.691511 C668.577724,725.781661 650.99968,726.872861 632.843368,728 C632.563211,699.430768 632.28355,670.908961 632,641.986267 C650.335082,640.657388 668.473499,639.342773 687,638 C686.088754,647.081394 685.227861,655.660815 684.358761,664.321994 C675.571312,664.688176 666.928323,665.04837 658.109773,665.415911 C658.109773,667.788689 658.109773,670.084463 658.109773,672.614397 C664.345768,672.029986 670.492718,671.453912 676.92544,670.8511 C676.456642,677.391445 676.013761,683.569127 675.554404,689.977202 C674.189355,690.143188 672.88589,690.301641 671.355524,690.498009 Z" id="Path" fill="#265487"></path>
                <path d="M559.063306,661.255159 C558.80479,662.434491 558.58111,663.411615 558.345505,664.441012 C554.322559,663.053146 550.490894,661.456934 546.508777,660.444527 C543.338041,659.638546 539.988135,659.27865 536.709273,659.224393 C534.298977,659.184522 532.027084,660.228491 531.005319,662.766855 C530.091306,665.03753 530.64798,666.184742 533.018447,667.016705 C538.228967,668.845449 543.545677,670.417912 548.640018,672.52253 C559.398671,676.967085 565.911322,684.91262 566.874342,696.607288 C567.79697,707.809674 563.647171,717.034187 554.151631,723.333096 C546.65692,728.304597 537.957965,729.225169 529.197145,728.958473 C520.280815,728.687063 512.061248,725.815591 504,721.232447 C506.391131,713.781118 508.799929,706.274787 511.292755,698.506659 C514.234192,699.808953 516.858867,701.117386 519.589671,702.148147 C524.544734,704.018436 529.588446,705.60975 534.961716,703.925176 C535.991659,703.602238 537.031466,703.10332 537.876621,702.444794 C540.274556,700.576862 540.531949,698.551366 538.047238,696.875349 C534.864703,694.728628 531.321519,693.063152 527.81161,691.453049 C523.19597,689.33572 518.346285,687.651394 514.58223,684.07458 C506.109391,676.02326 504.093892,664.820688 509.291365,654.159508 C513.804248,644.902255 521.262189,639.434813 531.370151,637.166804 C542.795164,634.603327 553.593646,636.442425 564.300858,640.937518 C562.556048,647.683629 560.827094,654.36829 559.063306,661.255159 Z" id="Path" fill="#255387"></path>
                <path d="M625.001365,656.633104 C624.9106,657.861151 624.825039,658.858788 624.723493,660.042135 C620.151831,660.653596 615.665853,661.253635 611.04952,661.871085 C611.04952,682.745403 611.04952,703.66263 611.04952,724.808969 C602.52086,725.839698 593.861348,726.886232 584.645349,728 C584.95835,706.822112 585.268254,685.849938 585.584228,664.465596 C580.497403,664.869553 575.742289,665.247148 571,665.623754 C571,657.193384 571,648.729922 571,640.246023 C589.689363,638.828995 608.080037,637.434563 627,636 C626.308386,643.078661 625.657478,649.740648 625.001365,656.633104 Z" id="Path" fill="#265487"></path>
                <path d="M438.280337,196.065215 C441.916543,215.583531 431.500203,231.978641 413.211622,235.428563 C395.899244,238.694319 380.005266,227.65929 376.589744,210.072281 C373.336352,193.320302 383.850321,176.749859 400.564812,173.411843 C404.260834,172.673729 408.198279,173.141534 412.150641,173.197803 C412.2083,180.515278 414.081381,186.914889 419.700532,191.801394 C424.428505,195.912922 429.910549,197.300516 436.055383,196.272438 C436.713427,196.162331 437.387588,196.147895 438.280337,196.065215 Z" id="Path" fill="#255387"></path>
                <path d="M95.4327971,706.818538 C95.4277972,713.084123 95.4277972,719.099845 95.4277972,725.293178 C87.3849343,726.238226 80.0170716,727.110468 72.6471748,727.965355 C70.6711627,728.194601 69.9613344,727.282664 70.0016122,725.333181 C70.2217421,714.679121 70.3399819,704.023092 70.5315881,693.368478 C70.7367807,681.957814 71.0258047,670.548565 71.1971012,659.13747 C71.2899078,652.954046 71.2136376,646.76822 71.2136376,640.622274 C78.3457504,639.784249 84.9494554,638.918407 91.5738583,638.255656 C97.9743581,637.615306 98.1701568,637.713466 97.9466109,644.219928 C97.3994931,660.144922 96.6601012,676.063392 96.0047121,691.984755 C95.8046278,696.845631 95.6261577,701.707369 95.4327971,706.818538 Z" id="Path" fill="#E9932D"></path>
                <path d="M328,63.182297 C324.819591,64.4993824 321.503289,65.8233781 318.107532,66.9045135 C304.773678,71.1497153 291.204253,74.7393778 278.405555,81 C261.080994,58.3528124 255.843668,32.6373239 258.762042,5 C273.092999,34.2576784 295.861539,53.9935966 328,63.182297 Z" id="Path" fill="#265487"></path>
                <path d="M389,54.7523977 C373.727532,56.1371444 358.484285,58.1395939 343.399963,61.2778399 C341.759537,61.6191171 340.077883,61.7652796 338.198248,62 C335.792176,48.4442386 329.563644,36.5701644 322,25 C336.372902,25.0407671 349.748519,27.4859205 362.280719,34.0468377 C372.416804,39.3533103 381.03686,46.471403 389,54.7523977 Z" id="Path" fill="#265387"></path>
                <path d="M576.232076,58.7639017 C576.280352,60.0475879 576.053362,61.2156418 576.287578,62.2843199 C577.989067,70.046282 580.196051,77.725673 581.404441,85.5583498 C582.216472,90.8220335 582.112196,96.3363876 581.604335,101.662349 C580.835846,109.720917 579.473782,117.732106 578.128039,125.724398 C577.562122,129.085077 576.394158,132.346118 575.405906,136 C563.684037,128.873126 554.949787,119.480019 548,107.519029 C550.268341,105.395397 552.654474,103.161398 555.127505,100.787775 C560.751607,96.2688918 563.949149,90.270535 566.632973,84.0042638 C570.496285,74.9841351 572.662282,65.5137207 573.518975,55 C574.660153,56.5504427 575.415311,57.5763573 576.232076,58.7639017 Z" id="Path" fill="#255387"></path>
                <path d="M433,55.2496854 C429.365387,55.3648921 425.685881,55.2872359 422.006068,55.2598706 C415.005223,55.2078053 408.002904,55.0905199 401.003778,55.1903824 C397.692204,55.2376407 394.38668,55.7232596 390.851558,56 C391.789199,45.6689659 391.74498,35.425015 388.719903,25.3760605 C388.476796,24.5684278 388.113623,23.7989087 387.851507,22.9963572 C387.593783,22.2071402 387.393788,21.3983745 387,20 C407.21496,25.6246226 421.855449,37.9242003 433,55.2496854 Z" id="Path" fill="#265487"></path>
                <path d="M219.317808,293 C219.655535,308.525624 219.830397,324.121976 220,339.963208 C212.263729,341.38193 205.287321,344.4591 198.696999,348.511637 C196.901697,349.615625 195.10227,350.713024 193,352 C193.756525,337.69715 196.045274,324.090094 203.973973,312.233917 C208.486646,305.485894 214.059536,299.435319 219.317808,293 Z" id="Path" fill="#265487"></path>
                <path d="M390,537 C376.717675,534.528629 363.454422,531.899499 350.215778,529.157289 C342.246125,527.506426 334.314738,525.679306 326.182048,523.75394 C326,523.423948 326.000738,523.271532 326,523.119057 C332.815474,522.545009 339.631748,521.979667 346.446268,521.394989 C357.057092,520.484642 367.666347,519.55706 378.277109,518.645992 C381.017732,518.410644 383.761432,518.209886 386.725354,518 C387.974495,524.269316 389.001998,530.531967 390,537 Z" id="Path" fill="#275487"></path>
                <path d="M381,479 C363.977061,475.155652 346.98853,471.072673 330,466.989755 C330.067764,466.830586 330.135497,466.671417 330.20323,466.512248 C346.121919,465.012661 362.040578,463.513074 378.186614,462 C379.287486,467.578132 380.160978,473.169811 381,479 Z" id="Path" fill="#275487"></path>
                <path d="M170.913941,301.741556 C170.690765,301.785318 170.275512,301.603373 170.086059,301.254618 C170.448516,301.230509 170.585174,301.373209 170.913941,301.741556 Z" id="Path" fill="#255387"></path>
                <path d="M280.276153,412.421678 C281.763567,413.914849 283.009734,415.453387 284.561068,416.568231 C291.332735,421.434452 300.476635,419.550971 305.771927,412.204948 C307.527013,409.770175 309.007366,407.137798 311,404.58251 C310.812219,406.119416 310.663167,407.662173 310.430337,409.192241 C308.928893,419.059705 304.584037,426.607272 294.143864,429.302693 C293.531588,429.460782 292.861066,430.625488 292.773373,431.385656 C292.018951,437.928947 290.746699,444.265088 287.066722,449.928989 C282.95081,456.263959 272.852681,460.196586 264.6302,453.560192 C259.132697,449.123209 257.107133,443.093174 255.848263,436.573691 C255.800901,436.328535 255.832938,436.069212 255.80454,435.819128 C255.395122,432.211486 254.772147,429.401125 250.23137,428.076359 C242.437979,425.802693 239.507367,418.95114 237.705628,411.693386 C237.005228,408.872061 236.626182,405.971182 236,402.557202 C238.406491,406.157051 240.385372,409.367638 242.610003,412.398209 C249.357773,421.590508 261.256777,421.544125 267.860089,412.152222 C270.32572,408.645414 272.102915,404.655749 274.130915,401 C276.047666,404.574471 278.111495,408.423234 280.276153,412.421678 M267.511693,445.184268 C270.297507,446.826073 273.338783,447.649625 276.440032,446.682429 C284.839131,444.062895 289.260117,437.798331 291.582492,429.552962 C287.347653,428.056895 282.775579,427.053696 280.20508,423.076072 C277.796277,419.348625 275.858436,415.317535 273.501866,411.035869 C270.223813,419.696001 266.748144,427.953658 255.961394,429.672183 C258.712149,435.832679 261.430683,441.489651 267.511693,445.184268 Z" id="Shape" fill="#255387"></path>
                <path d="M557.083672,169.848568 C557.591183,168.124531 557.791279,166.445311 558.599088,165.133875 C562.249146,159.208191 564.438625,159.00189 571.070497,161.546066 C578.794015,164.50907 582.590447,170.924424 584.883222,178.40332 C586.698751,184.325078 585.93018,190.306912 585.162539,196.26275 C584.827458,198.863014 584.167878,201.422174 583.655601,204 C583.423694,203.995599 583.191724,203.991197 582.959816,203.986779 C581.954077,201.106873 581.037091,198.192733 579.922608,195.354789 C578.109122,190.736951 576.098696,186.177655 571.612854,183.418605 C569.993212,182.422486 568.117524,181.83926 566.371376,181.04047 C564.387069,180.132739 562.230641,179.45209 560.483564,178.210301 C557.764913,176.278017 556.67364,173.410442 557.083672,169.848568 Z" id="Path" fill="#255387"></path>
                <path d="" id="Path" fill="#255387"></path>
                <path d="M311.459236,404.419315 C311.538581,404.359012 311.560859,404.590702 311.560859,404.590702 C311.560859,404.590702 311.379951,404.479556 311.459236,404.419315 Z" id="Path" fill="#255387"></path>
                <path d="M325.793898,524.066885 C326.003672,524.364728 326.002854,524.595687 325.99915,525 C325.332052,524.959323 324.666007,524.745382 324,524.53135 C324.005926,524.354263 324.01189,524.177086 324.017816,524 C324.540244,524 325.062632,524 325.793898,524.066885 Z" id="Path" fill="#2E5683"></path>
                <path d="M218.60521,128.496182 C218.493333,128.526273 218.367295,128.540585 218.400071,128.50372 C218.558823,128.452542 218.591111,128.480374 218.60521,128.496182 Z" id="Path" fill="#4580BC"></path>
                <path d="M395.959231,679.668256 C395.947693,689.49565 391.913372,696.954072 384.014959,702.607216 C379.796463,705.62653 371.998221,703.30076 369.545642,699.784739 C366.095528,694.838671 365.109529,689.44013 366.824267,683.791598 C368.104699,679.573842 369.434089,675.141166 371.891294,671.568958 C373.937084,668.594971 377.372236,666.179398 380.710118,664.531457 C384.21024,662.80336 390.469035,665.557635 393.004322,668.936828 C395.355033,672.070034 396.204921,675.59552 395.959231,679.668256 Z" id="Path"></path>
                <path d="M732.543084,670.588414 C729.81944,677.580352 724.075157,680.743041 717,683 C717.18766,678.904263 717.361749,675.051256 717.543004,671.198618 C717.578265,670.44943 717.612829,669.698399 717.697875,668.953569 C717.901328,667.171759 717.491507,664.458927 718.493418,663.812626 C720.430271,662.563057 723.161081,662.048864 725.578596,662.002946 C730.38851,661.911599 734.38227,663.926686 732.543084,670.588414 Z" id="Path"></path>
                <path d="M40.9953901,666.062097 C41.1011514,669.961351 39.3778585,672.902194 36.7793451,675.440675 C32.8428417,679.286107 29.1651335,681.3281 25.003707,682 C25.003707,679.67415 24.9940083,677.378173 25.0059862,675.082382 C25.0239847,671.631596 25.0253184,668.18007 25.1106728,664.730642 C25.1278149,664.037818 25.2569333,663.092307 25.7304763,662.707968 C28.1343416,660.756643 35.575016,660.342492 38.0888778,662.172226 C39.3175747,663.066569 40.03315,664.60331 40.9953901,666.062097 Z" id="Path"></path>
                <path d="M267.504821,446.006328 C261.527466,442.404962 258.780015,436.757059 256,430.606438 C266.901489,428.890668 270.414129,420.646249 273.72705,412 C276.108687,416.274802 278.067141,420.29943 280.501566,424.020902 C283.099407,427.992149 287.720114,428.993739 292,430.487408 C289.652922,438.719559 285.18491,444.974081 276.696469,447.589415 C273.562233,448.55506 270.488606,447.732829 267.504821,446.006328 Z" id="Path" fill="#447FBB"></path>
            </g>
        </g>
    </g>
</svg>