<svg xmlns="http://www.w3.org/2000/svg" viewBox="0 0 512 512">
  <g fill="none" stroke="#000" stroke-width="24" stroke-linecap="round" stroke-linejoin="round">
    
    <!-- Body -->
    <path d="M156 120
             C156 80 196 48 256 48
             C316 48 356 80 356 120
             L356 336
             C356 392 316 440 256 440
             C196 440 156 392 156 336
             Z" />
    
    <!-- Horns -->
    <path d="M204 80 C172 40 168 16 172 8 C196 20 220 48 232 78" />
    <path d="M308 80 C340 40 344 16 340 8 C316 20 292 48 280 78" />
    
    <!-- Arms -->
    <path d="M156 228 C120 248 108 300 144 332" />
    <path d="M356 228 C392 248 404 300 368 332" />
    
    <!-- Legs -->
    <path d="M220 440 L220 484 L184 484" />
    <path d="M292 440 L292 484 L328 484" />
    
    <!-- Eye -->
    <circle cx="256" cy="188" r="68" />
    <circle cx="256" cy="188" r="28" />
    <circle cx="270" cy="178" r="8" />
    
    <!-- Mouth -->
    <path d="M218 260 C240 276 272 276 294 260" />
    
    <!-- Fang -->
    <path d="M250 260 L242 296 L260 296 Z" />
    
  </g>
</svg>