<?xml version="1.0" encoding="UTF-8"?>
<svg width="929px" height="186px" viewBox="0 0 929 186" version="1.1" xmlns="http://www.w3.org/2000/svg" xmlns:xlink="http://www.w3.org/1999/xlink">
    <title>pickmonster-wordmark-horiz</title>
    <g id="Page-1" stroke="none" stroke-width="1" fill="none" fill-rule="evenodd">
        <g id="Extra-Large-Copy" transform="translate(-24.000000, -17.000000)" fill-rule="nonzero">
            <g id="pickmonster-wordmark-horiz" transform="translate(24.000000, 17.000000)">
                <g id="pickmonster-mascot-copy">
                    <path d="M91.5372199,17.0287316 C92.3540567,17.232032 93.1610815,17.5483162 93.989233,17.6211496 C102.242855,18.3470232 110.137152,20.4168761 117.686506,23.8590998 C122.226199,25.9290294 126.497873,28.4240048 130.377555,31.681603 C129.650579,32.4597393 128.898105,33.1751247 128.182777,33.8551677 C130.374412,37.6853918 133.128782,40.6933124 136.825306,42.9755252 C137.136954,41.805456 137.505275,40.7611847 137.683738,39.6850068 C138.108122,37.1256642 138.537653,34.5602703 138.779998,31.9797043 C138.940153,30.2741911 138.973037,28.5083495 138.716961,26.8227793 C138.335892,24.3145497 137.639913,21.8554063 137.103344,19.3698214 C137.029483,19.0276025 137.101065,18.6535609 137.105308,18.2942514 C139.994395,21.2809315 141.830065,24.8459302 142.829893,28.8686873 C143.795345,32.7531192 143.826677,36.7068619 143.659803,40.670438 C143.590696,42.3120288 143.419481,43.9492249 143.347821,45.5907713 C143.328963,46.0235147 143.416437,46.5118304 143.610124,46.8952453 C145.515844,50.6673857 147.135472,54.5552831 148.278091,58.6300086 C149.534683,63.1110928 150.185559,67.6749646 149.953665,72.3882254 C149.61316,72.4833822 149.286386,72.6421447 148.95421,72.6544842 C148.072048,72.687271 147.846007,73.2059361 147.725492,73.9867962 C147.21169,77.3161624 146.502452,80.5982271 145.264895,83.7476717 C144.327514,86.1332031 143.071237,88.3294891 141.505963,90.4540021 C141.026989,89.0808748 140.669237,87.7133239 140.086347,86.4511138 C138.590455,83.2118418 136.99049,80.0213546 135.443662,76.8057334 C135.240565,76.38354 135.000616,76.3029773 134.552149,76.441342 C133.556977,76.7483764 132.549743,77.032393 131.529485,77.233721 C130.979263,77.3422949 130.790153,77.6245416 130.68386,78.1189727 C130.001416,81.2931259 128.992356,84.3576571 127.415472,87.1990289 C126.403936,89.0216885 125.275932,90.778834 124.114515,92.7075166 C123.59199,91.6614951 123.189136,90.7589009 122.705016,89.9028863 C120.879187,86.67456 119.032418,83.4581576 117.1696,80.2513562 C117.068867,80.0779206 116.756374,80.0163713 116.530844,79.9356108 C116.443213,79.904238 116.314919,79.9441238 116.21951,79.9853149 C115.173774,80.4368345 113.717523,79.9398821 113.022625,81.0341937 C112.403434,82.0093124 112.239232,83.264621 111.718731,84.3184436 C110.581003,86.621929 109.344546,88.8759774 108.109779,91.2237093 C106.351131,88.2606527 104.683376,85.4507032 102.953723,82.5364609 C103.428218,81.9108731 103.994509,81.1723312 104.55247,80.4274316 C108.653321,74.9524723 110.254052,68.7869054 109.319677,62.0235936 C108.987423,59.6186681 108.219921,57.2746688 107.684157,54.7935259 C107.643514,53.6180434 107.753264,52.4973224 107.459452,51.4966646 C106.765143,49.1318374 105.959533,46.7918376 105.054073,44.499787 C102.930092,39.1233114 99.417335,34.8168591 94.737562,31.4924071 C90.9701537,28.8160961 86.7222784,27.2199081 82.2658353,26.1531627 C81.28184,25.9176291 80.2761875,25.7737967 79.280504,25.5877399 C80.3810654,27.2238136 81.5716052,28.6690205 81.9992204,30.7486149 C77.8636877,29.4642667 73.7345395,29.1643018 69.574953,29.5962443 C65.4266224,30.0270298 61.4307963,31.0514374 57.8034183,33.273831 C60.1813352,33.5791302 62.4515354,34.1385415 64.5460418,35.273624 C62.8011452,36.6204853 61.0762461,37.9255181 59.3806456,39.2680338 C57.6434789,40.6434501 56.2139041,42.3166611 54.9806194,44.1507061 C53.7865733,45.9263954 52.6510166,47.7424898 51.9720889,49.8025368 C52.3627051,49.603122 52.6936337,49.3744009 52.979195,49.0981559 C55.0219205,47.1220581 57.3703618,45.5837413 59.8568791,44.2522599 C63.7783831,42.1523765 67.9613259,40.7584955 72.2856352,39.8185762 C73.3484119,39.5875711 74.4987505,39.7648132 75.6088393,39.7543721 C74.2262916,40.3857391 72.8254065,40.9796971 71.4645652,41.6553895 C67.161756,43.7918614 63.6585365,46.8728256 61.1944524,51.0166 C58.1206161,56.1857261 56.8802303,61.8062283 57.5093119,67.8325307 C58.0371988,72.88938 60.0316693,77.3339697 62.8105743,81.5158404 C64.9431796,84.7251138 67.0516626,87.9353066 69.767953,90.6910237 C72.8438716,93.8115672 76.4500834,96.1912354 80.230771,98.3303324 C80.8587232,98.6856276 81.5193232,98.9867295 82.1258637,99.3746434 C82.560207,99.6524406 82.8340705,99.569584 83.144108,99.2030567 C84.8414961,97.1964613 86.552458,95.2015032 88.2563188,93.2004348 C88.3927152,93.0402288 88.510568,92.8640148 88.7594052,92.5319453 C89.3443081,93.8943844 89.9282779,95.1144543 90.396762,96.3779003 C91.151711,98.4139308 91.8669012,100.466958 92.519742,102.538079 C92.719853,103.172921 93.1390215,103.238831 93.6281611,103.364539 C94.0969004,103.484998 94.4117703,103.37767 94.7265223,102.975479 C96.9891106,100.084423 99.3016921,97.2308596 100.971117,93.9253222 C101.017398,93.8336756 101.106384,93.7639 101.22244,93.6295396 C103.744051,97.1186669 105.203975,101.042812 106.439037,105.318623 C110.040368,100.77156 112.602661,95.7465282 115.441518,90.7442873 C116.58011,92.5667491 117.712809,94.3177742 118.782353,96.107034 C120.209394,98.4943056 121.261789,101.053263 122.003301,103.735061 C122.162848,104.312112 122.442202,104.450239 122.981639,104.352532 C123.901498,104.185938 124.837209,104.098167 125.747658,103.893458 C126.085373,103.817532 126.490035,103.57796 126.662055,103.290463 C129.037438,99.3207173 131.159495,95.2251243 132.56919,90.7917964 C132.756592,90.2024459 132.904568,89.6003705 133.073426,88.9947848 C134.349681,90.4108335 136.563081,93.7532808 138.485597,101.598832 C140.393635,101.073908 142.300239,100.549379 144.380788,99.9769858 C144.20256,100.498805 144.054761,100.931509 143.82428,101.438151 C143.126004,102.110951 142.494594,102.694359 141.898033,103.311869 C140.652068,104.601636 139.437887,105.922656 138.186737,107.207222 C134.968499,110.511513 131.322106,113.275635 127.443602,115.736152 C122.761767,118.706278 117.790186,121.070107 112.551882,122.86697 C108.88337,124.125364 105.163804,125.212823 101.324273,125.764532 C97.7667875,126.275723 94.1951193,126.762323 90.6126961,126.999928 C87.3098331,127.218984 83.9913239,127.049444 80.6921638,126.588699 C76.5988652,126.017048 72.6251874,125.052835 68.8141599,123.416731 C62.7667392,120.820519 57.7374252,116.961305 53.9999537,111.469497 C53.576994,110.847983 53.1385159,110.237157 52.707237,109.621377 C52.6399571,109.655331 52.5726772,109.689284 52.5053974,109.723238 C52.9025058,110.938621 53.2752658,112.162725 53.7011525,113.367795 C55.1327899,117.418766 56.9037439,121.298695 59.487262,124.756914 C59.9174703,125.332758 60.3862,125.879424 60.8093561,126.487769 C59.6496373,128.414108 58.3792163,130.223123 57.4131851,132.184108 C55.0526728,136.975776 53.4235861,142.042216 52.2408843,147.253616 C50.4641256,155.082664 49.6271539,163.028404 49.5379811,171.044069 C49.4825857,176.023242 49.6689559,181.005145 49.7468138,185.985821 C43.605663,185.990765 37.4645217,185.997231 31.3233708,186 C29.1242515,186 26.9251422,185.992723 24.726023,185.988906 C24.4373676,185.988412 24.1487124,185.988847 23.7659929,185.988847 C23.7659929,185.626551 23.7659929,185.338748 23.7659929,185.050925 C23.7659929,167.555406 23.7681538,150.059907 23.7650305,132.564398 C23.7635867,124.519467 23.7518003,116.474526 23.7518201,108.277883 C23.7043902,103.187821 23.6498393,98.2494829 23.5952788,93.3111444 C23.591684,93.2180937 23.5880892,93.1250332 23.5906823,92.9071141 C23.6494269,92.1672671 23.7419097,91.5527137 23.7484904,90.9372208 C23.8301103,83.2879653 23.5054971,75.629722 24.2457821,67.9953768 C24.4113887,66.2875598 24.5930544,64.5802667 24.8195174,62.8797764 C25.1379723,60.4884508 25.5411409,58.1080856 25.8292953,55.713433 C25.914284,55.0071093 26.1970756,54.7474454 26.8432768,54.6291867 C29.5334508,54.136842 32.1337154,53.3772844 34.5573136,52.0485614 C37.4869452,50.442412 39.6768907,48.1116717 41.2993674,45.220665 C42.9187009,42.3352446 43.2722887,39.2127285 42.7411212,35.9939682 C42.4915178,34.4813488 42.027866,33.004527 41.6385562,31.4192796 C41.4303618,31.592102 41.3645453,31.6193963 41.3586817,31.6563357 C41.3335376,31.8146731 41.3106036,31.976219 41.3143654,32.1359356 C41.3983915,35.6983238 40.2311395,38.829457 38.1194351,41.647796 C37.8806651,41.966473 37.7048633,42.1403731 37.2801553,41.9926696 C35.4618598,41.3603337 33.6287727,40.7708497 31.8146318,40.1270394 C31.6089715,40.0540502 31.3740811,39.7508125 31.3479256,39.5308172 C31.1990945,38.2793399 31.120657,37.0195966 30.9948682,35.7650444 C30.9379799,35.1976637 30.8270024,34.6357757 30.7277523,33.9877335 C30.5113369,34.1216439 30.3840454,34.1696178 30.2980548,34.2582042 C28.8989965,35.6996242 27.5569248,37.2024647 26.0899877,38.5696547 C25.2607065,39.3425554 24.2281124,39.8943979 23.2848288,40.5432459 C23.28256,40.5406851 23.2773642,40.5361764 23.2740838,40.4680867 C23.4874051,39.2402057 23.7589801,38.087484 23.9074478,36.9189178 C24.1169582,35.269852 24.3058626,33.6118725 24.3713548,31.9524199 C24.4278306,30.5215302 24.2994096,29.0832447 24.2478937,27.4995743 C23.8422009,27.7631831 23.6013881,27.9191771 23.3610368,28.075893 C21.5224789,29.2747048 19.6848539,30.4750049 17.8447736,31.6714537 C17.4753138,31.9116787 17.1120612,32.1307151 16.6922052,31.7238521 C15.9599054,31.0142308 15.2157408,30.3163312 14.45868,29.6336039 C14.1263664,29.3339256 14.061876,29.0537751 14.2854122,28.6482024 C14.8177188,27.6824077 15.3189098,26.6990578 15.8235973,25.718081 C16.138369,25.1062564 16.4366301,24.4858348 16.8217951,23.7089444 C16.3983837,23.7307709 16.1684535,23.7165825 15.9489148,23.7580949 C14.2989958,24.0701027 12.6544397,24.4130781 10.9992365,24.6924376 C10.7314332,24.7376281 10.2805401,24.6066048 10.1484013,24.4030373 C8.48338612,21.8379427 6.73095134,19.3173291 5.25789997,16.6419277 C2.83477795,12.2410034 1.24426178,7.49853751 0.0883885383,2.60538074 C-0.0531005828,2.00640251 -0.0518090252,1.49973949 0.294633197,1 C2.4544453,4.53728541 4.75072255,7.97197002 7.48695636,11.0975835 C10.6571649,14.7189082 14.2303409,17.852387 18.3752436,20.2853609 C24.1511777,23.6757127 30.3968924,25.7254175 37.0033747,26.6625781 C38.7745742,26.9138376 40.5337516,26.7930132 42.2501156,25.8375707 C46.3344565,23.7800351 50.6252241,22.6218457 54.8415023,21.2521493 C55.9152698,20.9033255 56.9639127,20.4761439 58.0241062,20.0849649 C59.0669936,19.8995433 60.1098908,19.7141216 61.276082,19.504995 C61.9257799,19.4052382 62.4582141,19.3582681 62.9775952,19.2485966 C67.7534949,18.2401029 72.579712,17.596604 77.4411308,17.2032893 C77.5817114,17.2074989 77.7222919,17.2117084 77.9883864,17.2156832 C79.1720705,17.1246843 80.2293665,16.9711126 81.2885976,16.9561677 C83.5273186,16.9245873 85.7670611,16.9616775 88.0063322,16.9781426 C89.1833472,16.9867966 90.3602638,17.0113545 91.5372199,17.0287316 M42.9425682,131.62702 C42.2851502,130.391417 41.6277423,129.155824 41.0171847,128.008288 C40.3711898,129.181917 39.8050859,130.462745 39.019689,131.588558 C36.916284,134.603701 33.1260003,134.618592 30.9765799,131.667529 C30.2679507,130.694605 29.6376021,129.663889 28.8710435,128.508206 C29.0705062,129.604219 29.1912466,130.535506 29.4143507,131.441255 C29.9882727,133.771258 30.9217836,135.970857 33.4042739,136.700786 C34.8506835,137.126084 35.0491248,138.028313 35.1795397,139.186497 C35.1885856,139.266783 35.1783808,139.350036 35.1934672,139.42874 C35.5944651,141.521731 36.239684,143.457592 37.9908469,144.882026 C40.6100185,147.01255 43.8266553,145.750033 45.1377291,143.716277 C46.3099413,141.897958 46.7152018,139.863826 46.9555138,137.763191 C46.9834472,137.51915 47.1970339,137.145237 47.392067,137.094484 C50.7176579,136.229156 52.101659,133.806111 52.5799257,130.638296 C52.6540908,130.147088 52.7015698,129.651807 52.7613851,129.158404 C52.1266558,129.978745 51.6551073,130.823834 51.0960458,131.605485 C49.4092947,133.963826 46.4966159,134.568492 44.3395834,133.006258 C43.8454249,132.648352 43.4484735,132.154425 42.9425682,131.62702 M130.945005,53.9653642 C130.823626,55.044459 131.169985,55.9687809 132.032857,56.591625 C132.587361,56.991898 133.271789,57.2112953 133.901587,57.5038892 C134.455797,57.7613678 135.051121,57.9493625 135.565178,58.2704471 C136.988938,59.1597873 137.627027,60.6294111 138.202609,62.117905 C138.556334,63.0326756 138.847376,63.9720066 139.166587,64.9003032 C139.240192,64.901727 139.313817,64.9031459 139.387422,64.9045647 C139.550014,64.0736395 139.759357,63.2487309 139.865709,62.4105731 C140.10935,60.4907941 140.353287,58.5626356 139.777056,56.6538417 C139.049353,54.2431269 137.844405,52.1752294 135.39304,51.2201476 C133.288152,50.4000691 132.593234,50.466567 131.434743,52.3766266 C131.178353,52.7993489 131.114845,53.3406217 130.945005,53.9653642 M52.843802,128.80546 C52.843802,128.80546 52.8960872,128.837797 52.8960872,128.837797 C52.8960872,128.837797 52.8896485,128.770388 52.843802,128.80546 Z" id="Shape" fill="#4580BC"></path>
                    <path d="M50.2834486,185.989984 C50.1389283,181.043232 49.955253,176.105262 50.0098473,171.169996 C50.0977308,163.225016 50.9226001,155.349344 52.6736675,147.589333 C53.8392678,142.423889 55.4447984,137.402126 57.7711786,132.652712 C58.7232413,130.70902 59.9752924,128.915958 61.1683547,127 C61.6257087,127.263509 61.9958375,127.594287 62.3870878,127.897105 C64.4534669,129.496357 66.4703819,131.169994 68.6172974,132.650066 C69.7507607,133.431469 71.1140045,133.871236 72.3734994,134.465238 C73.0533452,138.856689 73.7331908,143.248139 74.3358589,147.710063 C69.2878795,148.264355 64.3170776,148.748173 59.3462662,149.231992 C59.3251156,149.283345 59.3039651,149.334698 59.2828049,149.386052 C64.5876878,150.703342 69.8925707,152.020651 75.1974536,153.337941 C75.4425186,154.856372 75.7067885,156.37194 75.9282733,157.893879 C76.2878317,160.364599 76.6193766,162.839514 76.8807618,165.379306 C75.9358624,165.516666 75.0724962,165.58219 74.2100981,165.659005 C70.8711851,165.956364 67.5327465,166.259113 64.1938144,166.556237 C62.0494736,166.747067 59.9045812,166.931586 57.7080853,167.104541 C57.5265105,167.090154 57.3968004,167.090154 57.2670806,167.090154 C57.2656092,167.128296 57.2641282,167.166459 57.2626568,167.204601 C57.4280276,167.250702 57.5934081,167.296782 57.8169741,167.363483 C60.3763581,167.954575 62.8721456,168.55092 65.3799748,169.089737 C69.5458091,169.984754 73.7193873,170.842864 77.8896937,171.716516 C78.3163335,174.212795 78.7650048,176.705468 79.1621307,179.206549 C79.4420723,180.969574 79.6580879,182.743202 79.8891365,184.513891 C79.9500423,184.980637 79.9607966,185.454087 80,186 C70.0529757,186 60.2021109,186 50.2834486,185.989984 Z" id="Path" fill="#E8932C"></path>
                    <path d="M24.1763461,40.7539893 C25.1240482,40.1047996 26.1639803,39.554837 26.9991547,38.7845692 C28.4765166,37.4220367 29.8281257,35.9243158 31.2371263,34.4878062 C31.323728,34.3995216 31.4519241,34.3517111 31.6698774,34.2182569 C31.7698328,34.8640915 31.8815991,35.4240654 31.9388916,35.9895132 C32.0655743,37.2397916 32.1445693,38.4952434 32.2944579,39.7424574 C32.3207994,39.9617033 32.557359,40.263908 32.7644808,40.3366485 C34.5915138,40.9782656 36.4376277,41.5657415 38.2688448,42.1959233 C38.6965709,42.3431236 38.8736221,42.1698159 39.1140889,41.8522244 C41.2408,39.0434865 42.416347,35.9230199 42.3317238,32.3727673 C42.3279352,32.2135948 42.3510323,32.0525993 42.376355,31.8948013 C42.3822603,31.8579877 42.4485446,31.8307864 42.6582185,31.6585527 C43.0502949,33.2383998 43.5172416,34.7101906 43.7686188,36.2176571 C44.303561,39.4254523 43.9474605,42.5373312 42.3166192,45.4129221 C40.6826125,48.2940803 38.4771042,50.6168806 35.5266533,52.2175585 C33.085832,53.541755 30.4670887,54.2987251 27.7577971,54.7893926 C27.1070037,54.9072484 26.8222025,55.1660277 26.7366098,55.8699453 C26.4464076,58.2564402 26.0403739,60.6286964 25.7196559,63.0118756 C25.4915836,64.7065731 25.3086269,66.4080501 25.1418434,68.1100491 C24.3962976,75.7183871 24.7232176,83.3505416 24.6410178,90.9737391 C24.6343903,91.5871352 24.5412502,92.1995951 24.4851348,92.890412 C21.9827178,92.2699411 19.4982046,92.6161231 17.0947242,93.3091472 C14.402842,94.0853077 11.7812995,95.1035253 9.04247119,96 C8.93363803,95.9605357 8.91149051,95.9374977 8.88934802,95.9144596 C9.75828763,93.1861428 10.4852569,90.4027635 11.5258418,87.7410285 C13.6666833,82.2649046 17.367606,77.9687968 22.1169577,74.5326063 C22.870773,73.9872208 23.5742495,73.3727901 24.42621,72.6899252 C16.9290978,69.739495 9.61701954,71.1198185 2.22771194,72.7761259 C6.32854535,61.3345305 14.3183868,53.8977415 25.5478376,49.4507087 C24.3873555,48.7051887 23.4002845,48.038198 22.3820943,47.4222351 C15.1725532,43.0607871 9.56406454,37.2042196 5.60399472,29.7689381 C2.88043928,24.6552941 1.03835612,19.2623875 0.24364873,13.5300241 C0.0525265956,12.1514127 0.0222481001,10.7439594 0.00942857389,9.34893668 C-0.0165271542,6.52443258 0.0174605295,3.69933986 0.0351765343,0.874541284 C0.0368680097,0.603980731 0.0979739158,0.333788431 0.131496796,0.0634248389 C0.217509868,0.0422823111 0.303523102,0.0211412363 0.389541036,0 C0.59469462,0.407702601 0.799852905,0.815405363 1.01274657,1.28300525 C0.671582606,1.84093703 0.67028187,2.34587404 0.812776477,2.94281178 C1.97686388,7.81929944 3.57868298,12.5456096 6.0190248,16.9315417 C7.50254434,19.597829 9.26743272,22.1098557 10.9442803,24.6662121 C11.0773581,24.8690861 11.5314554,24.9996631 11.8011619,24.9546265 C13.4681277,24.6762187 15.1243707,24.3344116 16.7860148,24.0234667 C17.0071136,23.9820958 17.2386779,23.9962358 17.6650982,23.9744837 C17.2771961,24.7487275 16.9768154,25.3670355 16.6598068,25.9767759 C16.1515327,26.9544109 15.6467801,27.9344109 15.1106906,28.8969155 C14.8855659,29.3011065 14.9505146,29.5803027 15.2851897,29.8789602 C16.0476306,30.5593617 16.7970835,31.2548838 17.5345874,31.9620877 C17.957427,32.3675646 18.3232611,32.1492744 18.6953464,31.9098677 C20.5485032,30.7174948 22.3991872,29.5212837 24.2508108,28.3265558 C24.49287,28.1703737 24.7353942,28.0149112 25.1439701,27.7522003 C25.195852,29.3304758 25.3251856,30.7638616 25.2683085,32.1898768 C25.2023508,33.8436763 25.012104,35.4960077 24.8011047,37.1394557 C24.651582,38.3040411 24.3780771,39.452836 24.1375015,40.6847914 C24.1355034,40.7586058 24.1559298,40.7562952 24.1763461,40.7539893 Z" id="Path" fill="#255387"></path>
                    <path d="M72.9503113,134.144751 C71.591513,133.560667 70.1973847,133.122122 69.0382425,132.34289 C66.8426881,130.866931 64.7800794,129.197945 62.6668859,127.603135 C62.2667718,127.301159 61.8882576,126.9713 61.4485369,126.66089 C60.9428086,126.113806 60.470391,125.573466 60.0367979,125.004286 C57.4329526,121.586086 55.6480648,117.751058 54.2051633,113.746967 C53.7759257,112.555842 53.4002329,111.345903 53,110.144585 C53.0678091,110.111025 53.1356184,110.077464 53.2034277,110.043903 C53.6380998,110.652557 54.0800279,111.256314 54.5063155,111.870636 C58.2731933,117.29889 63.3420779,121.113444 69.4370797,123.679613 C73.2780923,125.296782 77.283035,126.249837 81.4085396,126.814873 C84.7336575,127.270286 88.0782767,127.437864 91.4071266,127.221343 C95.0177362,126.986488 98.6175063,126.505518 102.202982,126.000244 C106.072722,125.454919 109.821554,124.380044 113.518929,123.136213 C118.798448,121.360144 123.809146,119.023671 128.527818,116.087916 C132.436838,113.655872 136.11192,110.923739 139.355479,107.657685 C140.616474,106.387985 141.840208,105.082252 143.095976,103.807411 C143.697231,103.197048 144.333608,102.620391 145,102 C144.107313,104.82313 142.620143,107.4026 140.90054,109.844554 C138.432858,113.348853 135.686732,116.620448 132.254812,119.26955 C131.148878,120.123242 130.787123,121.352951 130.588526,122.622769 C129.90683,126.981826 127.64408,130.434094 124.393731,133.336239 C124.134472,133.567713 123.857414,133.780804 123.57903,133.989966 C123.410229,134.11678 123.222937,134.219563 122.918875,134.412541 C122.718298,131.770788 122.626869,129.190624 121.411906,126.813652 C120.095298,127.229513 119.166182,128.002637 118.780115,129.36001 C117.82051,132.733772 115.754278,135.413483 113.276162,137.827447 C111.865611,139.201523 110.290675,140.35339 108.502471,141.208636 C108.219533,141.343963 107.924993,141.455659 107.479155,141.644708 C108.221236,138.392386 108.240143,135.293304 107.328945,132.187705 C106.537626,132.32654 105.765907,132.428502 105.015591,132.61459 C104.799571,132.668156 104.59159,132.935155 104.470563,133.153308 C102.20316,137.240421 98.9034337,140.208436 94.5854993,142.077388 C93.906615,142.371234 93.2158417,142.638281 92.3287977,143 C93.174374,140.220125 93.5205082,137.576456 93.2267703,134.757177 C92.5531622,134.813176 91.87112,134.901837 91.1870286,134.921725 C85.437567,135.088863 79.6892634,135.211397 73.9870801,134.224762 C73.669604,134.169828 73.3432782,134.164756 72.9503113,134.144751 Z" id="Path" fill="#255387"></path>
                    <path d="M94.0042572,62.3398738 C95.3222191,61.643817 96.7795398,61.0359086 97.4762929,59.6554147 C98.0733843,58.4724263 98.3767178,57.1411627 98.7829242,55.8669765 C98.8793342,55.5645496 98.8676445,55.2281605 98.908319,54.8850086 C103.305296,61.0866043 103.280341,70.699871 97.0938447,77.306597 C90.4742418,84.3758526 79.9391734,84.7950927 72.6157659,78.936723 C65.622592,73.3425357 63.9014754,62.8375437 68.7618706,55.3109273 C73.5062566,47.9639639 83.4331621,44.3301625 92.4607002,49.2635922 C91.5400179,49.4584637 90.5812544,49.5826982 89.6745857,49.8693271 C87.6544546,50.5079698 86.6307795,52.1048861 85.916871,53.9545534 C85.7905385,54.2818776 85.6911064,54.6194352 85.5062858,54.9489179 C84.1949465,54.9737163 82.9205815,54.823238 81.7243537,55.0606664 C76.3146631,56.1344015 72.9117881,61.4645946 73.9647575,66.8531821 C75.0702006,72.5103728 80.2143299,76.0599964 85.8175286,75.0095051 C91.7366779,73.8997731 95.1079549,68.6259789 94.0042572,62.3398738 Z" id="Path" fill="#E9932C"></path>
                    <path d="M76.4023211,40.0955902 C75.2424451,40.105728 74.1066201,39.9293779 73.0572524,40.1592204 C68.7875025,41.0944096 64.6573354,42.4812761 60.7853086,44.5705919 C58.3301634,45.8953728 56.0113522,47.4259481 53.9943996,49.3921012 C53.7124411,49.666956 53.3856878,49.8945261 53,50.0929374 C53.6703617,48.0432574 54.7915913,46.2363024 55.9705722,44.4695492 C57.1882966,42.6447339 58.5998347,40.9799433 60.3150837,39.6114487 C61.989291,38.275689 63.6924272,36.9772238 65.4153086,35.6371405 C63.3472284,34.5077702 61.1056711,33.9511742 58.7577562,33.6474113 C62.3393679,31.4362017 66.2847791,30.4169495 70.3807706,29.9883319 C74.487876,29.5585631 78.5649272,29.8570184 82.6482823,31.1349032 C82.2260623,29.0657742 81.0505434,27.6278403 79.9638677,26 C80.9469887,26.1851205 81.939953,26.3282291 82.9115334,26.5625773 C87.3117499,27.6239544 91.5060303,29.2121097 95.2259056,31.8749523 C99.8466343,35.1826742 103.315071,39.4674545 105.412255,44.8168733 C106.30629,47.0973894 107.101736,49.4256132 107.787285,51.7785396 C108.07739,52.7741617 107.969025,53.8892427 108,55 C106.73752,52.1726026 105.080022,49.5860757 102.94971,47.3149348 C100.014312,44.1854863 96.5427334,41.8865541 92.5412776,40.411719 C87.3829426,38.51047 82.1756232,38.4731754 76.9279989,39.9962839 C76.7770405,40.0401058 76.6202149,40.0631309 76.4023211,40.0955902 Z" id="Path" fill="#255387"></path>
                    <path d="M93.7715356,62.3222905 C94.9258866,68.5185812 91.619112,73.7233782 85.8132134,74.8185915 C80.3172202,75.8553392 75.2715131,72.3521554 74.1872204,66.7689779 C73.1543975,61.4508894 76.4921655,56.1904313 81.7983529,55.1307439 C82.9716934,54.8964218 84.221676,55.0449314 85.4763939,55.0627945 C85.4946984,57.3858025 86.0893274,59.417425 87.8731847,60.9686964 C89.3741287,62.2739436 91.1144602,62.7144496 93.065201,62.3880755 C93.2741037,62.3531211 93.4881231,62.348538 93.7715356,62.3222905 Z" id="Path" fill="#255387"></path>
                    <path d="M58,19.3733569 C57.000443,19.7892787 55.9581767,20.2073826 54.8909386,20.5487938 C50.7002987,21.8893838 46.4356224,23.0229614 42.4131746,25 C36.9683123,17.8482566 35.3222955,9.72757595 36.2394989,1 C40.7435139,10.2392669 47.8993407,16.4716621 58,19.3733569 Z" id="Path" fill="#265487"></path>
                    <path d="M78,17.6494263 C73.2131069,18.0985333 68.435373,18.7479764 63.7074512,19.7657859 C63.1932877,19.8764704 62.6662022,19.9238745 62.0770629,20 C61.3229209,15.6035369 59.3706943,11.7524858 57,8 C61.5049395,8.01322177 65.697297,8.80624447 69.6252999,10.9341095 C72.8022818,12.6551277 75.5040903,14.9636983 78,17.6494263 Z" id="Path" fill="#265387"></path>
                    <path d="M137.133907,18.208166 C137.149526,18.6202134 137.076088,18.9951443 137.151863,19.3381768 C137.702345,21.8296708 138.416369,24.2946605 138.807319,26.808853 C139.070035,28.4984305 139.036299,30.2684701 138.871991,31.978038 C138.623362,34.5647389 138.182694,37.1362316 137.747307,39.7016588 C137.564216,40.7803952 137.186345,41.8271491 136.866617,43 C133.074247,40.7123615 130.248461,37.69729 128,33.85796 C128.733875,33.1763003 129.505859,32.4592141 130.305957,31.6973105 C132.12552,30.2468048 133.160019,28.3214063 134.028315,26.3100106 C135.27821,23.4146607 135.978973,20.3747745 136.256139,17 C136.625344,17.497673 136.86966,17.8269789 137.133907,18.208166 Z" id="Path" fill="#255387"></path>
                    <path d="M93,18.7498951 C91.8148002,18.7882974 90.6149613,18.762412 89.4150221,18.7532902 C87.1321379,18.7359351 84.848773,18.69684 82.5664495,18.7301275 C81.4865883,18.7458802 80.4086999,18.9077532 79.2559427,19 C79.5616952,15.556322 79.5472761,12.1416717 78.560838,8.79202016 C78.4815638,8.52280928 78.3631379,8.2663029 78.2776654,7.99878572 C78.1936248,7.7357134 78.128409,7.46612482 78,7 C84.5918349,8.8748742 89.3659074,12.9747334 93,18.7498951 Z" id="Path" fill="#265487"></path>
                    <path d="M23.7726027,94 C23.8851784,98.736631 23.9434656,103.49484 24,108.327758 C21.4212431,108.760589 19.0957738,109.699387 16.8989998,110.935754 C16.3005657,111.272563 15.7007566,111.607363 15,112 C15.2521749,107.636419 16.0150912,103.485113 18.6579911,99.8679746 C20.1622152,97.8092558 22.0198454,95.9633176 23.7726027,94 Z" id="Path" fill="#265487"></path>
                    <path d="M78,172 C73.8492734,171.089495 69.7045069,170.120868 65.5674307,169.11058 C63.0769139,168.502367 60.5983557,167.829218 58.0568899,167.119873 C58,166.998296 58.0002306,166.942143 58,166.885968 C60.1298356,166.674477 62.2599211,166.466193 64.3894587,166.250785 C67.7053411,165.915394 71.0207334,165.573654 74.3365967,165.237997 C75.1930414,165.15129 76.0504474,165.077326 76.9766731,165 C77.3670297,167.309748 77.6881243,169.617041 78,172 Z" id="Path" fill="#275487"></path>
                    <path d="M75,153 C69.65947,151.86931 64.329735,150.668433 59,149.467575 C59.0212593,149.420761 59.0425089,149.373946 59.0637585,149.327132 C64.0578571,148.886077 69.051946,148.445022 74.1173692,148 C74.4627406,149.640627 74.7367774,151.285238 75,153 Z" id="Path" fill="#275487"></path>
                    <path d="M8.04139405,96.0241556 C8.01907655,96.0285318 7.97755125,96.0103373 7.95860595,95.9754618 C7.99485165,95.9730509 8.00851745,95.9873209 8.04139405,96.0241556 Z" id="Path" fill="#255387"></path>
                    <path d="M43.168369,131.671254 C43.6443415,132.151202 44.0431149,132.645732 44.5395416,133.004074 C46.7064751,134.568217 49.6325233,133.962812 51.3270167,131.601591 C51.8886443,130.818985 52.3623573,129.972864 53,129.151521 C52.9399102,129.645526 52.8922133,130.141413 52.8177078,130.63322 C52.3372458,133.804905 50.9468919,136.230909 47.6060363,137.097294 C47.4101081,137.148109 47.195541,137.522478 47.1674793,137.766818 C46.9260643,139.870019 46.5189436,141.906635 45.3413509,143.727175 C44.0242592,145.763415 40.7928578,147.027474 38.161664,144.894347 C36.4024632,143.468174 35.7542826,141.529949 35.3514441,139.434401 C35.3362884,139.3556 35.3465401,139.272247 35.3374527,139.191863 C35.2064391,138.032263 35.007087,137.128933 33.5540382,136.703116 C31.0601532,135.972294 30.1223573,133.770009 29.5458011,131.43716 C29.3216729,130.530305 29.2003783,129.59788 29,128.500529 C29.7700771,129.657624 30.4033192,130.689598 31.115201,131.66371 C33.2744874,134.618378 37.0821688,134.603469 39.1952286,131.584643 C39.9842305,130.457455 40.5529328,129.175062 41.2018929,128 C41.815253,129.148937 42.4756785,130.386039 43.168369,131.671254 M39.0837418,142.202086 C39.9752022,142.729809 40.9484106,142.994522 41.9408102,142.683638 C44.6285219,141.841645 46.0432375,139.828035 46.7863975,137.177738 C45.4312488,136.696859 43.9681852,136.374402 43.1456256,135.09588 C42.3748086,133.897772 41.7546994,132.602065 41.000597,131.225815 C39.9516202,134.009429 38.8394061,136.663676 35.387646,137.216059 C36.2678877,139.196218 37.1378184,141.014531 39.0837418,142.202086 Z" id="Shape" fill="#255387"></path>
                    <path d="M132.025967,53.3574663 C132.183471,52.7697266 132.245569,52.197265 132.496269,51.7501848 C133.629045,49.7300649 134.308539,49.6597353 136.366706,50.5270679 C138.76366,51.5371828 139.941863,53.7242354 140.653414,56.273859 C141.216854,58.2926402 140.978332,60.3319019 140.740098,62.3623011 C140.636108,63.2487547 140.431411,64.1211958 140.272428,65 C140.200457,64.9984995 140.128466,64.9969988 140.056495,64.995493 C139.744369,64.0137067 139.459787,63.02025 139.113913,62.0527691 C138.551107,60.4785061 137.927182,58.9242006 136.535024,57.9836154 C136.032376,57.6440295 135.450266,57.4452022 134.908358,57.1728873 C134.292539,56.8634337 133.623302,56.6313945 133.081106,56.2080572 C132.237387,55.549324 131.898716,54.5717414 132.025967,53.3574663 Z" id="Path" fill="#255387"></path>
                    <path d="" id="Path" fill="#255387"></path>
                    <path d="M52.9959236,128.991931 C53.0038581,128.985901 53.0060859,129.00907 53.0060859,129.00907 C53.0060859,129.00907 52.9879951,128.997956 52.9959236,128.991931 Z" id="Path" fill="#255387"></path>
                    <path d="M57.0396949,167.956689 C57.0501836,167.986473 57.0501427,168.009569 57.0499575,168.05 C57.0166026,168.045932 56.9833003,168.024538 56.95,168.003135 C56.9502963,167.985426 56.9505945,167.967709 56.9508908,167.95 C56.9770122,167.95 57.0031316,167.95 57.0396949,167.956689 Z" id="Path" fill="#2E5683"></path>
                    <path d="M24.010521,40.9996182 C23.9993333,41.0026273 23.9867295,41.0040585 23.9900071,41.000372 C24.0058823,40.9952542 24.0091111,40.9980374 24.010521,40.9996182 Z" id="Path" fill="#4580BC"></path>
                    <path d="M39.8349404,142.335443 C37.8424885,141.134987 36.9266717,139.252353 36,137.202146 C39.6338296,136.630223 40.8047096,133.882083 41.9090166,131 C42.7028955,132.424934 43.3557135,133.766477 44.1671888,135.006967 C45.0331357,136.330716 46.5733714,136.66458 48,137.162469 C47.2176406,139.90652 45.7283032,141.99136 42.8988231,142.863138 C41.8540776,143.18502 40.8295355,142.910943 39.8349404,142.335443 Z" id="Path" fill="#447FBB"></path>
                </g>
                <g id="pickmonster-mascot" transform="translate(170.000000, 57.000000)">
                    <path d="M303.692147,77.2547239 C300.704127,83.4934814 297.788312,89.5559125 294.688957,96 C287.048722,83.8567765 281.166742,71.1598651 274.880641,58.1767745 C272.97985,70.5917382 271.14902,82.5497354 269.24534,94.9835576 C264.568933,93.5990274 260.110865,92.3137078 255.675327,90.9530778 C253.031181,90.1419654 250.452601,89.098324 247.786969,88.3773348 C246.082598,87.9163225 245.80595,87.0987995 246.104423,85.4570309 C248.514063,72.203818 250.920752,58.949049 253.174946,45.6681394 C255.316421,33.0514552 257.271558,20.402469 259.313133,7.76842009 C259.461601,6.84969441 259.647079,5.93713052 259.865938,4.74641589 C266.311543,4.74641589 272.741102,4.68722552 279.165713,4.83983847 C279.794719,4.85471394 280.635239,6.07225389 280.968816,6.90035822 C284.022924,14.4820696 287.024315,22.0863117 289.962262,29.7150143 C291.672042,34.1546607 293.237873,38.6511939 294.868502,43.1220847 C295.098581,43.1275617 295.328661,43.1330393 295.55874,43.1385785 C297.33633,37.7254356 299.088284,32.3035168 300.898273,26.9015145 C303.04608,20.491161 305.276391,14.108878 307.400068,7.69043334 C308.031565,5.78184178 309.041854,4.87774276 311.157786,4.71423796 C315.490195,4.37951096 319.816549,3.81138354 324.10328,3.08485512 C326.356306,2.7030125 327.127387,3.62086681 327.508055,5.61622101 C328.711416,11.924376 329.959869,18.2241289 331.241244,24.5165998 C335.406496,44.9702413 339.594986,65.4190905 343.768015,85.8711142 C343.867793,86.3602586 343.89097,86.8654613 344,87.7870499 C335.76242,90.3925439 327.52739,92.9972281 318.558535,95.834006 C316.694508,83.4308056 314.885748,71.395257 312.986925,58.760275 C309.78275,65.1245082 306.773551,71.1014217 303.692147,77.2547239 Z" id="Path" fill="#265387"></path>
                    <path d="M452.422195,87.2036421 C452.407049,88.2802159 452.390289,89.1192398 452.377253,89.9582638 C452.353789,91.4700697 451.576182,92.2448606 450.059082,92.3521614 C442.555645,92.8827575 435.052921,93.4235055 427,94 C427.619472,64.2079768 428.235624,34.57752 428.85792,4.65137126 C434.225499,4.65137126 439.272961,4.58756923 444.314959,4.72458632 C445.018697,4.74365935 445.871104,5.62771976 446.35783,6.31723656 C454.796109,18.2718348 463.188453,30.2582421 471.588929,42.2391118 C472.071496,42.9273363 472.537799,43.62682 473.36848,44.8437954 C473.36848,31.0034392 473.36848,17.7065996 473.36848,4 C482.361642,4.57114179 491.016375,5.12074945 499.996068,5.69102987 C500.07962,20.149533 498.813239,34.4834472 497.94761,48.838034 C497.080306,63.2214764 496.451181,77.6191306 495.700763,92.3425634 C492.45104,92.3425634 488.928748,92.3852002 485.409685,92.2996801 C484.836551,92.2857753 484.163602,91.8144279 483.728646,91.3700288 C476.904489,84.3959851 470.074808,77.4265557 463.326631,70.3805272 C459.679507,66.572465 456.184032,62.6217866 452.422257,58.5195708 C452.422257,68.28509 452.422257,77.6255911 452.422195,87.2036421 Z" id="Path" fill="#255387"></path>
                    <path d="M343.518463,45.6736677 C344.921365,36.7621485 347.648004,28.5855037 353.035503,21.5125631 C362.188945,9.49548417 373.874198,1.83268828 389.452025,2.00277446 C400.517842,2.12353068 408.793315,7.5901837 414.625004,16.9277846 C426.429918,35.829645 423.422716,63.6172761 410.162228,80.7244409 C399.969731,93.8735721 382.140996,99.3396674 366.309749,93.9297106 C358.458728,91.2467045 352.943511,85.6471643 348.974716,78.4621942 C343.331535,68.2460617 342.150139,57.2817471 343.518463,45.6736677 M396.200133,45.2925209 C396.446891,41.383507 395.593308,37.7873086 393.232375,34.5912583 C390.686063,31.1442874 384.400053,28.3347687 380.884711,30.0975265 C377.532315,31.7785214 374.082226,34.2425443 372.02754,37.276183 C369.55965,40.9200401 368.224479,45.4416247 366.93848,49.7439782 C365.216286,55.5058063 366.206572,61.0126286 369.671689,66.0579027 C372.134932,69.6444455 379.967083,72.016865 384.203923,68.9369909 C392.136681,63.170459 396.188545,55.5624397 396.200133,45.2925209 Z" id="Shape" fill="#265488"></path>
                    <path d="M704.299135,94.0435436 C701.187313,93.6611369 698.299941,93.2930871 695.178264,92.8951428 C695.178264,90.2691359 695.203971,87.6794238 695.174102,85.0903955 C694.976889,67.981292 694.79406,50.8719406 694.550819,33.7635208 C694.434034,25.5485857 694.197158,17.3353913 694.010841,9.12157477 C693.983052,7.89741394 693.881875,6.92272151 695.693269,6.74876466 C708.12948,5.55437364 720.52768,3.77764073 732.986904,3.05266566 C745.899069,2.30140118 756.619982,9.59173659 757.874382,24.6586659 C758.735152,34.9974391 755.08225,43.7172775 748.761897,51.4439655 C745.797647,55.0677227 742.422324,58.3448712 738.974346,62.0579375 C742.190773,64.6310554 745.56475,67.3092685 748.915835,70.0166918 C752.231664,72.6957749 755.52454,75.4041304 759,78.2403279 C754.041344,84.4242137 749.180438,90.486162 743.957179,97 C735.630178,89.7733063 727.456136,82.6793014 718.812689,75.1780301 C718.812689,82.3326931 718.812689,89.0361498 718.812689,95.9159868 C713.753039,95.2580712 709.138312,94.6580167 704.299135,94.0435436 M731.970543,36.2607545 C733.685534,29.7054001 729.831073,27.6653393 725.188925,27.7578181 C722.855731,27.8043057 720.22017,28.3248708 718.350873,29.5899265 C717.383907,30.2442374 717.779434,32.9906906 717.583078,34.794583 C717.500998,35.5486442 717.46764,36.3089823 717.433608,37.0674561 C717.258675,40.9678413 717.090659,44.8685992 716.909544,49.0150966 C723.737925,46.7301663 729.281852,43.5282809 731.970543,36.2607545 Z" id="Shape" fill="#265387"></path>
                    <path d="M182.344822,47.1928361 C182.230723,44.2309677 182.031369,41.510387 182.021856,38.7891818 C181.984352,28.0577419 182.006488,17.3261776 182.006488,6.18719755 C190.340684,5.32319705 199.211471,4.40352896 208.308687,3.4604315 C208.308687,10.3560682 208.308687,17.036657 208.308687,23.7172463 C208.473037,23.7894701 208.637386,23.8616314 208.801736,23.9338552 C211.714625,19.7918503 214.644985,15.6625906 217.534944,11.5037786 C219.886026,8.1205624 222.292603,4.7697717 224.468663,1.27022239 C225.537849,-0.449344919 226.307578,-0.306021284 227.468636,0.999882071 C233.169917,7.4125678 238.891352,13.8064479 245,20.6486035 C235.811583,30.7070984 226.871245,40.4940661 217.543878,50.7046936 C221.812056,54.8756258 226.13399,59.1672021 230.530994,63.3765578 C234.900465,67.5595484 239.34528,71.6599438 243.740393,75.7808936 C238.868209,83.194343 234.089725,90.4652816 229.137866,98 C221.886028,90.7223766 216.127271,82.2007642 207.864304,75.164991 C207.864304,81.1855059 207.864304,86.4821569 207.864304,92.1264323 C199.482602,93.2889501 191.362243,94.4151685 182.987005,95.5768121 C182.772101,79.4154572 182.559453,63.4246659 182.344822,47.1928361 Z" id="Path" fill="#E9932D"></path>
                    <path d="M123.999086,7.17981748 C138.491523,-2.6835834 153.375285,0.00148524862 165.415411,9.99589645 C168.319848,12.4068648 171.046979,15.0309811 173.898381,17.5955693 C170.792235,21.9777681 168.189624,25.6820565 165.552116,29.3613813 C162.954233,32.985329 160.321003,36.5840655 157.584509,40.3576066 C155.73154,38.5965504 153.919855,36.8714217 152.104543,35.1500095 C144.939568,28.3555418 137.405453,30.5777677 133.301711,38.1920589 C129.606641,45.0480986 128.72003,52.4548172 132.039945,59.8801183 C134.747666,65.9361571 141.03155,68.4016354 146.762724,65.1605612 C151.053632,62.7340453 154.873408,59.4761225 159.483474,56.1722996 C165.119538,62.8957178 171.085365,70.0125405 177,77.0682865 C163.858455,94.5972058 143.876332,100.234691 126.107326,92.8027621 C114.6731,88.0202835 108.368675,78.6252383 105.16731,67.051699 C101.147253,52.5183712 102.812869,38.3926943 109.389572,24.9454854 C112.784226,18.0045827 117.598497,12.0000192 123.999086,7.17981748 Z" id="Path" fill="#E9932C"></path>
                    <path d="M14.6652015,5.43475483 C23.1676495,4.60032171 31.4254616,3.46875565 39.7185594,3.05284504 C46.4535592,2.71504191 52.9480385,3.90263882 57.9261343,9.36109383 C62.0156956,13.845318 64.2453317,19.1113027 64.8244766,25.0699334 C66.6094832,43.4358623 54.649416,64.6086292 34.8995053,71.4682958 C31.8996035,72.510187 28.7396194,73.0832459 25.8350007,73.8267612 C25.8350007,79.0208566 25.7545474,84.1686229 25.8558886,89.3127819 C25.9757288,95.3958497 26.0473494,95.3600294 19.9885349,94.7186265 C13.9843993,94.0829446 7.97202389,93.5264899 1.55927749,92.8955346 C1.04123225,64.349929 0.523278943,35.8091117 -7.10542736e-15,6.97532858 C4.97774121,6.44835068 9.70677618,5.94767828 14.6652015,5.43475483 M39.5377125,31.9976949 C38.633786,30.7423138 37.9513502,29.1939665 36.7795562,28.2928684 C34.3821153,26.4493164 27.2860303,26.8665954 24.9934918,28.8326567 C24.5418794,29.2198991 24.4187406,30.172551 24.4023924,30.8706068 C24.3209909,34.346086 24.319719,37.8236794 24.302554,41.3005265 C24.2911309,43.6136566 24.3003804,45.9269738 24.3003804,48.2703892 C28.2690846,47.5934151 31.7764723,45.5360003 35.53067,41.6615255 C38.0088421,39.1038733 39.6523266,36.1408203 39.5377125,31.9976949 Z" id="Shape" fill="#E9932D"></path>
                    <path d="M671.355524,56.4980088 C666.618856,56.9164942 662.109027,57.2970036 657.479732,57.6876393 C657.479732,60.1911438 657.479732,62.5140269 657.479732,65.025003 C667.2887,64.0092008 677.027937,63.0006238 686.939773,61.9741388 C686.669984,71.635065 686.408032,81.0171852 686.137873,90.6915112 C668.577724,91.7816612 650.99968,92.8728613 632.843368,94 C632.563211,65.4307681 632.28355,36.9089609 632,7.98626663 C650.335082,6.65738766 668.473499,5.34277302 687,4 C686.088754,13.0813941 685.227861,21.6608145 684.358761,30.3219941 C675.571312,30.6881764 666.928323,31.0483697 658.109773,31.4159107 C658.109773,33.7886886 658.109773,36.084463 658.109773,38.6143969 C664.345768,38.0299862 670.492718,37.4539122 676.92544,36.8511002 C676.456642,43.3914451 676.013761,49.569127 675.554404,55.9772018 C674.189355,56.1431882 672.88589,56.3016407 671.355524,56.4980088 Z" id="Path" fill="#265487"></path>
                    <path d="M559.063306,27.2551591 C558.80479,28.4344913 558.58111,29.4116152 558.345505,30.4410123 C554.322559,29.0531465 550.490894,27.4569336 546.508777,26.4445271 C543.338041,25.6385455 539.988135,25.2786505 536.709273,25.2243931 C534.298977,25.184522 532.027084,26.2284908 531.005319,28.7668548 C530.091306,31.0375301 530.64798,32.1847424 533.018447,33.0167051 C538.228967,34.8454486 543.545677,36.4179124 548.640018,38.5225301 C559.398671,42.9670854 565.911322,50.9126195 566.874342,62.6072882 C567.79697,73.8096741 563.647171,83.0341875 554.151631,89.3330961 C546.65692,94.3045967 537.957965,95.2251692 529.197145,94.9584725 C520.280815,94.6870629 512.061248,91.8155911 504,87.2324472 C506.391131,79.7811181 508.799929,72.2747874 511.292755,64.5066589 C514.234192,65.808953 516.858867,67.1173865 519.589671,68.1481475 C524.544734,70.0184364 529.588446,71.6097504 534.961716,69.925176 C535.991659,69.6022379 537.031466,69.1033204 537.876621,68.4447941 C540.274556,66.5768617 540.531949,64.5513664 538.047238,62.8753493 C534.864703,60.7286285 531.321519,59.0631522 527.81161,57.4530494 C523.19597,55.3357202 518.346285,53.6513942 514.58223,50.07458 C506.109391,42.02326 504.093892,30.8206877 509.291365,20.1595083 C513.804248,10.9022547 521.262189,5.43481346 531.370151,3.16680449 C542.795164,0.603326868 553.593646,2.44242537 564.300858,6.93751816 C562.556048,13.6836288 560.827094,20.3682898 559.063306,27.2551591 Z" id="Path" fill="#255387"></path>
                    <path d="M625.001365,22.6331043 C624.9106,23.8611508 624.825039,24.8587879 624.723493,26.0421355 C620.151831,26.6535963 615.665853,27.2536354 611.04952,27.8710855 C611.04952,48.7454034 611.04952,69.6626298 611.04952,90.8089689 C602.52086,91.8396981 593.861348,92.8862319 584.645349,94 C584.95835,72.8221123 585.268254,51.8499382 585.584228,30.4655961 C580.497403,30.8695535 575.742289,31.2471479 571,31.6237541 C571,23.1933838 571,14.7299218 571,6.24602338 C589.689363,4.82899503 608.080037,3.4345627 627,2 C626.308386,9.07866092 625.657478,15.7406475 625.001365,22.6331043 Z" id="Path" fill="#265487"></path>
                    <path d="M95.4327971,72.8185385 C95.4277972,79.0841228 95.4277972,85.0998446 95.4277972,91.2931782 C87.3849343,92.2382256 80.0170716,93.1104682 72.6471748,93.9653553 C70.6711627,94.1946013 69.9613344,93.2826639 70.0016122,91.333181 C70.2217421,80.6791211 70.3399819,70.0230916 70.5315881,59.3684777 C70.7367807,47.9578141 71.0258047,36.5485651 71.1971012,25.1374704 C71.2899078,18.9540455 71.2136376,12.7682198 71.2136376,6.62227439 C78.3457504,5.78424933 84.9494554,4.91840745 91.5738583,4.25565593 C97.9743581,3.61530559 98.1701568,3.71346587 97.9466109,10.2199281 C97.3994931,26.1449218 96.6601012,42.0633923 96.0047121,57.9847551 C95.8046278,62.8456314 95.6261577,67.7073687 95.4327971,72.8185385 Z" id="Path" fill="#E9932D"></path>
                </g>
            </g>
        </g>
    </g>
</svg>