<?xml version="1.0" encoding="UTF-8"?>
<svg width="759px" height="98px" viewBox="0 0 759 98" version="1.1" xmlns="http://www.w3.org/2000/svg" xmlns:xlink="http://www.w3.org/1999/xlink">
    <title>pickmonster-word-logo</title>
    <g id="Page-1" stroke="none" stroke-width="1" fill="none" fill-rule="evenodd">
        <g id="word-logo" transform="translate(-12.000000, -15.000000)" fill-rule="nonzero">
            <g id="pickmonster-word-logo" transform="translate(12.000000, 15.000000)">
                <path d="M303.692147,77.2547239 C300.704127,83.4934814 297.788312,89.5559125 294.688957,96 C287.048722,83.8567765 281.166742,71.1598651 274.880641,58.1767745 C272.97985,70.5917382 271.14902,82.5497354 269.24534,94.9835576 C264.568933,93.5990274 260.110865,92.3137078 255.675327,90.9530778 C253.031181,90.1419654 250.452601,89.098324 247.786969,88.3773348 C246.082598,87.9163225 245.80595,87.0987995 246.104423,85.4570309 C248.514063,72.203818 250.920752,58.949049 253.174946,45.6681394 C255.316421,33.0514552 257.271558,20.402469 259.313133,7.76842009 C259.461601,6.84969441 259.647079,5.93713052 259.865938,4.74641589 C266.311543,4.74641589 272.741102,4.68722552 279.165713,4.83983847 C279.794719,4.85471394 280.635239,6.07225389 280.968816,6.90035822 C284.022924,14.4820696 287.024315,22.0863117 289.962262,29.7150143 C291.672042,34.1546607 293.237873,38.6511939 294.868502,43.1220847 C295.098581,43.1275617 295.328661,43.1330393 295.55874,43.1385785 C297.33633,37.7254356 299.088284,32.3035168 300.898273,26.9015145 C303.04608,20.491161 305.276391,14.108878 307.400068,7.69043334 C308.031565,5.78184178 309.041854,4.87774276 311.157786,4.71423796 C315.490195,4.37951096 319.816549,3.81138354 324.10328,3.08485512 C326.356306,2.7030125 327.127387,3.62086681 327.508055,5.61622101 C328.711416,11.924376 329.959869,18.2241289 331.241244,24.5165998 C335.406496,44.9702413 339.594986,65.4190905 343.768015,85.8711142 C343.867793,86.3602586 343.89097,86.8654613 344,87.7870499 C335.76242,90.3925439 327.52739,92.9972281 318.558535,95.834006 C316.694508,83.4308056 314.885748,71.395257 312.986925,58.760275 C309.78275,65.1245082 306.773551,71.1014217 303.692147,77.2547239 Z" id="Path" fill="#265387"></path>
                <path d="M452.422195,87.2036421 C452.407049,88.2802159 452.390289,89.1192398 452.377253,89.9582638 C452.353789,91.4700697 451.576182,92.2448606 450.059082,92.3521614 C442.555645,92.8827575 435.052921,93.4235055 427,94 C427.619472,64.2079768 428.235624,34.57752 428.85792,4.65137126 C434.225499,4.65137126 439.272961,4.58756923 444.314959,4.72458632 C445.018697,4.74365935 445.871104,5.62771976 446.35783,6.31723656 C454.796109,18.2718348 463.188453,30.2582421 471.588929,42.2391118 C472.071496,42.9273363 472.537799,43.62682 473.36848,44.8437954 C473.36848,31.0034392 473.36848,17.7065996 473.36848,4 C482.361642,4.57114179 491.016375,5.12074945 499.996068,5.69102987 C500.07962,20.149533 498.813239,34.4834472 497.94761,48.838034 C497.080306,63.2214764 496.451181,77.6191306 495.700763,92.3425634 C492.45104,92.3425634 488.928748,92.3852002 485.409685,92.2996801 C484.836551,92.2857753 484.163602,91.8144279 483.728646,91.3700288 C476.904489,84.3959851 470.074808,77.4265557 463.326631,70.3805272 C459.679507,66.572465 456.184032,62.6217866 452.422257,58.5195708 C452.422257,68.28509 452.422257,77.6255911 452.422195,87.2036421 Z" id="Path" fill="#255387"></path>
                <path d="M343.518463,45.6736677 C344.921365,36.7621485 347.648004,28.5855037 353.035503,21.5125631 C362.188945,9.49548417 373.874198,1.83268828 389.452025,2.00277446 C400.517842,2.12353068 408.793315,7.5901837 414.625004,16.9277846 C426.429918,35.829645 423.422716,63.6172761 410.162228,80.7244409 C399.969731,93.8735721 382.140996,99.3396674 366.309749,93.9297106 C358.458728,91.2467045 352.943511,85.6471643 348.974716,78.4621942 C343.331535,68.2460617 342.150139,57.2817471 343.518463,45.6736677 M396.200133,45.2925209 C396.446891,41.383507 395.593308,37.7873086 393.232375,34.5912583 C390.686063,31.1442874 384.400053,28.3347687 380.884711,30.0975265 C377.532315,31.7785214 374.082226,34.2425443 372.02754,37.276183 C369.55965,40.9200401 368.224479,45.4416247 366.93848,49.7439782 C365.216286,55.5058063 366.206572,61.0126286 369.671689,66.0579027 C372.134932,69.6444455 379.967083,72.016865 384.203923,68.9369909 C392.136681,63.170459 396.188545,55.5624397 396.200133,45.2925209 Z" id="Shape" fill="#265488"></path>
                <path d="M704.299135,94.0435436 C701.187313,93.6611369 698.299941,93.2930871 695.178264,92.8951428 C695.178264,90.2691359 695.203971,87.6794238 695.174102,85.0903955 C694.976889,67.981292 694.79406,50.8719406 694.550819,33.7635208 C694.434034,25.5485857 694.197158,17.3353913 694.010841,9.12157477 C693.983052,7.89741394 693.881875,6.92272151 695.693269,6.74876466 C708.12948,5.55437364 720.52768,3.77764073 732.986904,3.05266566 C745.899069,2.30140118 756.619982,9.59173659 757.874382,24.6586659 C758.735152,34.9974391 755.08225,43.7172775 748.761897,51.4439655 C745.797647,55.0677227 742.422324,58.3448712 738.974346,62.0579375 C742.190773,64.6310554 745.56475,67.3092685 748.915835,70.0166918 C752.231664,72.6957749 755.52454,75.4041304 759,78.2403279 C754.041344,84.4242137 749.180438,90.486162 743.957179,97 C735.630178,89.7733063 727.456136,82.6793014 718.812689,75.1780301 C718.812689,82.3326931 718.812689,89.0361498 718.812689,95.9159868 C713.753039,95.2580712 709.138312,94.6580167 704.299135,94.0435436 M731.970543,36.2607545 C733.685534,29.7054001 729.831073,27.6653393 725.188925,27.7578181 C722.855731,27.8043057 720.22017,28.3248708 718.350873,29.5899265 C717.383907,30.2442374 717.779434,32.9906906 717.583078,34.794583 C717.500998,35.5486442 717.46764,36.3089823 717.433608,37.0674561 C717.258675,40.9678413 717.090659,44.8685992 716.909544,49.0150966 C723.737925,46.7301663 729.281852,43.5282809 731.970543,36.2607545 Z" id="Shape" fill="#265387"></path>
                <path d="M182.344822,47.1928361 C182.230723,44.2309677 182.031369,41.510387 182.021856,38.7891818 C181.984352,28.0577419 182.006488,17.3261776 182.006488,6.18719755 C190.340684,5.32319705 199.211471,4.40352896 208.308687,3.4604315 C208.308687,10.3560682 208.308687,17.036657 208.308687,23.7172463 C208.473037,23.7894701 208.637386,23.8616314 208.801736,23.9338552 C211.714625,19.7918503 214.644985,15.6625906 217.534944,11.5037786 C219.886026,8.1205624 222.292603,4.7697717 224.468663,1.27022239 C225.537849,-0.449344919 226.307578,-0.306021284 227.468636,0.999882071 C233.169917,7.4125678 238.891352,13.8064479 245,20.6486035 C235.811583,30.7070984 226.871245,40.4940661 217.543878,50.7046936 C221.812056,54.8756258 226.13399,59.1672021 230.530994,63.3765578 C234.900465,67.5595484 239.34528,71.6599438 243.740393,75.7808936 C238.868209,83.194343 234.089725,90.4652816 229.137866,98 C221.886028,90.7223766 216.127271,82.2007642 207.864304,75.164991 C207.864304,81.1855059 207.864304,86.4821569 207.864304,92.1264323 C199.482602,93.2889501 191.362243,94.4151685 182.987005,95.5768121 C182.772101,79.4154572 182.559453,63.4246659 182.344822,47.1928361 Z" id="Path" fill="#E9932D"></path>
                <path d="M123.999086,7.17981748 C138.491523,-2.6835834 153.375285,0.00148524862 165.415411,9.99589645 C168.319848,12.4068648 171.046979,15.0309811 173.898381,17.5955693 C170.792235,21.9777681 168.189624,25.6820565 165.552116,29.3613813 C162.954233,32.985329 160.321003,36.5840655 157.584509,40.3576066 C155.73154,38.5965504 153.919855,36.8714217 152.104543,35.1500095 C144.939568,28.3555418 137.405453,30.5777677 133.301711,38.1920589 C129.606641,45.0480986 128.72003,52.4548172 132.039945,59.8801183 C134.747666,65.9361571 141.03155,68.4016354 146.762724,65.1605612 C151.053632,62.7340453 154.873408,59.4761225 159.483474,56.1722996 C165.119538,62.8957178 171.085365,70.0125405 177,77.0682865 C163.858455,94.5972058 143.876332,100.234691 126.107326,92.8027621 C114.6731,88.0202835 108.368675,78.6252383 105.16731,67.051699 C101.147253,52.5183712 102.812869,38.3926943 109.389572,24.9454854 C112.784226,18.0045827 117.598497,12.0000192 123.999086,7.17981748 Z" id="Path" fill="#E9932C"></path>
                <path d="M14.6652015,5.43475483 C23.1676495,4.60032171 31.4254616,3.46875565 39.7185594,3.05284504 C46.4535592,2.71504191 52.9480385,3.90263882 57.9261343,9.36109383 C62.0156956,13.845318 64.2453317,19.1113027 64.8244766,25.0699334 C66.6094832,43.4358623 54.649416,64.6086292 34.8995053,71.4682958 C31.8996035,72.510187 28.7396194,73.0832459 25.8350007,73.8267612 C25.8350007,79.0208566 25.7545474,84.1686229 25.8558886,89.3127819 C25.9757288,95.3958497 26.0473494,95.3600294 19.9885349,94.7186265 C13.9843993,94.0829446 7.97202389,93.5264899 1.55927749,92.8955346 C1.04123225,64.349929 0.523278943,35.8091117 -7.10542736e-15,6.97532858 C4.97774121,6.44835068 9.70677618,5.94767828 14.6652015,5.43475483 M39.5377125,31.9976949 C38.633786,30.7423138 37.9513502,29.1939665 36.7795562,28.2928684 C34.3821153,26.4493164 27.2860303,26.8665954 24.9934918,28.8326567 C24.5418794,29.2198991 24.4187406,30.172551 24.4023924,30.8706068 C24.3209909,34.346086 24.319719,37.8236794 24.302554,41.3005265 C24.2911309,43.6136566 24.3003804,45.9269738 24.3003804,48.2703892 C28.2690846,47.5934151 31.7764723,45.5360003 35.53067,41.6615255 C38.0088421,39.1038733 39.6523266,36.1408203 39.5377125,31.9976949 Z" id="Shape" fill="#E9932D"></path>
                <path d="M671.355524,56.4980088 C666.618856,56.9164942 662.109027,57.2970036 657.479732,57.6876393 C657.479732,60.1911438 657.479732,62.5140269 657.479732,65.025003 C667.2887,64.0092008 677.027937,63.0006238 686.939773,61.9741388 C686.669984,71.635065 686.408032,81.0171852 686.137873,90.6915112 C668.577724,91.7816612 650.99968,92.8728613 632.843368,94 C632.563211,65.4307681 632.28355,36.9089609 632,7.98626663 C650.335082,6.65738766 668.473499,5.34277302 687,4 C686.088754,13.0813941 685.227861,21.6608145 684.358761,30.3219941 C675.571312,30.6881764 666.928323,31.0483697 658.109773,31.4159107 C658.109773,33.7886886 658.109773,36.084463 658.109773,38.6143969 C664.345768,38.0299862 670.492718,37.4539122 676.92544,36.8511002 C676.456642,43.3914451 676.013761,49.569127 675.554404,55.9772018 C674.189355,56.1431882 672.88589,56.3016407 671.355524,56.4980088 Z" id="Path" fill="#265487"></path>
                <path d="M559.063306,27.2551591 C558.80479,28.4344913 558.58111,29.4116152 558.345505,30.4410123 C554.322559,29.0531465 550.490894,27.4569336 546.508777,26.4445271 C543.338041,25.6385455 539.988135,25.2786505 536.709273,25.2243931 C534.298977,25.184522 532.027084,26.2284908 531.005319,28.7668548 C530.091306,31.0375301 530.64798,32.1847424 533.018447,33.0167051 C538.228967,34.8454486 543.545677,36.4179124 548.640018,38.5225301 C559.398671,42.9670854 565.911322,50.9126195 566.874342,62.6072882 C567.79697,73.8096741 563.647171,83.0341875 554.151631,89.3330961 C546.65692,94.3045967 537.957965,95.2251692 529.197145,94.9584725 C520.280815,94.6870629 512.061248,91.8155911 504,87.2324472 C506.391131,79.7811181 508.799929,72.2747874 511.292755,64.5066589 C514.234192,65.808953 516.858867,67.1173865 519.589671,68.1481475 C524.544734,70.0184364 529.588446,71.6097504 534.961716,69.925176 C535.991659,69.6022379 537.031466,69.1033204 537.876621,68.4447941 C540.274556,66.5768617 540.531949,64.5513664 538.047238,62.8753493 C534.864703,60.7286285 531.321519,59.0631522 527.81161,57.4530494 C523.19597,55.3357202 518.346285,53.6513942 514.58223,50.07458 C506.109391,42.02326 504.093892,30.8206877 509.291365,20.1595083 C513.804248,10.9022547 521.262189,5.43481346 531.370151,3.16680449 C542.795164,0.603326868 553.593646,2.44242537 564.300858,6.93751816 C562.556048,13.6836288 560.827094,20.3682898 559.063306,27.2551591 Z" id="Path" fill="#255387"></path>
                <path d="M625.001365,22.6331043 C624.9106,23.8611508 624.825039,24.8587879 624.723493,26.0421355 C620.151831,26.6535963 615.665853,27.2536354 611.04952,27.8710855 C611.04952,48.7454034 611.04952,69.6626298 611.04952,90.8089689 C602.52086,91.8396981 593.861348,92.8862319 584.645349,94 C584.95835,72.8221123 585.268254,51.8499382 585.584228,30.4655961 C580.497403,30.8695535 575.742289,31.2471479 571,31.6237541 C571,23.1933838 571,14.7299218 571,6.24602338 C589.689363,4.82899503 608.080037,3.4345627 627,2 C626.308386,9.07866092 625.657478,15.7406475 625.001365,22.6331043 Z" id="Path" fill="#265487"></path>
                <path d="M95.4327971,72.8185385 C95.4277972,79.0841228 95.4277972,85.0998446 95.4277972,91.2931782 C87.3849343,92.2382256 80.0170716,93.1104682 72.6471748,93.9653553 C70.6711627,94.1946013 69.9613344,93.2826639 70.0016122,91.333181 C70.2217421,80.6791211 70.3399819,70.0230916 70.5315881,59.3684777 C70.7367807,47.9578141 71.0258047,36.5485651 71.1971012,25.1374704 C71.2899078,18.9540455 71.2136376,12.7682198 71.2136376,6.62227439 C78.3457504,5.78424933 84.9494554,4.91840745 91.5738583,4.25565593 C97.9743581,3.61530559 98.1701568,3.71346587 97.9466109,10.2199281 C97.3994931,26.1449218 96.6601012,42.0633923 96.0047121,57.9847551 C95.8046278,62.8456314 95.6261577,67.7073687 95.4327971,72.8185385 Z" id="Path" fill="#E9932D"></path>
            </g>
        </g>
    </g>
</svg>