<?xml version="1.0" encoding="UTF-8"?>
<svg width="474px" height="584px" viewBox="0 0 474 584" version="1.1" xmlns="http://www.w3.org/2000/svg" xmlns:xlink="http://www.w3.org/1999/xlink">
    <title>pickmonster-mascot</title>
    <g id="Page-1" stroke="none" stroke-width="1" fill="none" fill-rule="evenodd">
        <g id="mascot" transform="translate(-31.000000, -11.000000)" fill-rule="nonzero">
            <g id="pickmonster-mascot" transform="translate(31.000000, 11.000000)">
                <path d="M289.647367,55.1655978 C292.223125,55.8018732 294.767944,56.7917572 297.379381,57.0197062 C323.405801,59.2914942 348.299154,65.7695745 372.104781,76.5428044 C386.419948,83.0211245 399.889959,90.8297232 412.123891,101.025125 C409.831492,103.460481 407.45869,105.699444 405.203024,107.827795 C412.113979,119.815361 420.799426,129.22934 432.455798,136.372049 C433.438529,132.710049 434.599966,129.441762 435.162722,126.073616 C436.500945,118.063565 437.855399,110.034576 438.619593,101.958102 C439.124617,96.6203062 439.22831,91.0936993 438.420817,85.81832 C437.219179,77.9682393 435.024526,70.2717851 433.332544,62.4925763 C433.099637,61.4215236 433.325359,60.2508743 433.338739,59.1263329 C442.448992,68.4738343 448.237472,79.6313167 451.390264,92.2214592 C454.434655,104.378681 454.533455,116.752827 454.007246,129.157749 C453.789329,134.295485 453.249432,139.419466 453.023462,144.557063 C452.963997,145.911433 453.23983,147.439729 453.850591,148.639714 C459.859962,160.445493 464.96719,172.613562 468.570247,185.366351 C472.5327,199.390934 474.585131,213.674619 473.85389,228.425852 C472.780164,228.723667 471.749736,229.22055 470.702275,229.259169 C467.920524,229.361783 467.207742,230.985065 466.827719,233.428946 C465.207529,243.848962 462.971066,254.120938 459.068636,263.977848 C456.112762,271.443917 452.1513,278.317698 447.215469,284.96685 C445.705105,280.669333 444.576993,276.389268 442.738949,272.438891 C438.021902,262.300846 432.97668,252.315483 428.099014,242.251458 C427.458582,240.930106 426.701944,240.677967 425.287778,241.111011 C422.149667,242.071946 418.973522,242.960841 415.75631,243.590943 C414.021277,243.93075 413.424948,244.814106 413.089773,246.361542 C410.9378,256.295783 407.755894,265.886938 402.783456,274.779663 C399.593745,280.484095 396.036774,285.983486 392.374436,292.019741 C390.726743,288.745977 389.45641,285.921101 387.929816,283.242006 C382.172369,273.138217 376.348891,263.071747 370.474805,253.035325 C370.15716,252.492519 369.171765,252.299886 368.460594,252.047128 C368.184264,251.94894 367.779712,252.073771 367.478854,252.202688 C364.1813,253.615822 359.589255,252.060496 357.39801,255.485395 C355.445494,258.537253 354.92771,262.46603 353.286398,265.76421 C349.698763,272.973497 345.799802,280.028059 341.906169,287.375825 C336.360568,278.102259 331.101579,269.307876 325.647407,260.187086 C327.143648,258.229165 328.92935,255.917728 330.688789,253.586394 C343.62014,236.451251 348.667779,217.154693 345.721382,195.987355 C344.673673,188.460588 342.253485,181.124504 340.564042,173.359197 C340.435882,169.680255 340.781959,166.172701 339.855473,163.040913 C337.666086,155.639642 335.125727,148.316076 332.270511,141.142576 C325.572889,124.315661 314.495996,110.837629 299.739112,100.432993 C287.859218,92.0568628 274.464251,87.0612259 260.411601,83.722601 C257.308735,82.9854447 254.137578,82.535288 250.997856,81.9529805 C254.468293,87.0734492 258.222462,91.5965559 259.570875,98.1051243 C246.530162,94.0854618 233.509581,93.1466527 220.393019,94.498516 C207.311949,95.8467582 194.711778,99.0528769 183.273446,106.008368 C190.77181,106.963872 197.930508,108.714679 204.535185,112.26718 C199.032945,116.482492 193.593763,120.566892 188.246969,124.768603 C182.769103,129.073284 178.261178,134.309983 174.37222,140.050048 C170.606995,145.607475 167.026206,151.29136 164.88532,157.73875 C166.117063,157.114636 167.160591,156.398801 168.061062,155.534228 C174.502456,149.349577 181.907874,144.535061 189.748692,140.367884 C202.114501,133.795816 215.304714,129.433345 228.940703,126.491652 C232.291992,125.768668 235.919393,126.323388 239.419873,126.29071 C235.060239,128.266719 230.642782,130.125646 226.351596,132.240381 C212.783404,138.926961 201.736585,148.569546 193.966507,161.53844 C184.273676,177.716407 180.362326,195.30706 182.34603,214.167758 C184.010634,229.99433 190.299864,243.904695 199.062677,256.992819 C205.787493,267.036978 212.436243,277.084014 221.001612,285.708663 C230.701009,295.475121 242.072596,302.922839 253.994365,309.617635 C255.974507,310.729613 258.057599,311.671981 259.970223,312.886046 C261.339853,313.755476 262.203435,313.496158 263.181087,312.349026 C268.533518,306.068925 273.928751,299.825245 279.301592,293.562442 C279.731695,293.06104 280.103324,292.509538 280.887991,291.47025 C282.732385,295.734317 284.573836,299.552806 286.051123,303.50705 C288.431729,309.879275 290.686962,316.304694 292.745586,322.786743 C293.376603,324.773629 294.698381,324.979908 296.240801,325.373343 C297.718893,325.750346 298.711782,325.414438 299.7043,324.155688 C306.838996,315.107463 314.131336,306.176582 319.39559,295.831144 C319.541528,295.544314 319.822132,295.325936 320.188093,294.905424 C328.139573,305.825449 332.743201,318.106962 336.637764,331.489095 C347.993959,317.258017 356.073723,301.531026 365.025588,285.875364 C368.615947,291.579177 372.187724,297.059412 375.560352,302.659312 C380.060288,310.130827 383.37884,318.139671 385.717077,326.532976 C386.22018,328.338987 387.101076,328.771289 388.802102,328.465491 C391.702723,327.944098 394.653332,327.6694 397.524281,327.028714 C398.589211,326.791088 399.865243,326.04129 400.407681,325.141503 C407.898055,312.717272 414.589607,299.899173 419.034846,286.024055 C419.625786,284.179547 420.092405,282.295214 420.624869,280.399894 C424.649328,284.831744 431.628917,295.2927 437.691248,319.847154 C443.707928,318.204284 449.720086,316.562652 456.280752,314.771215 C455.718741,316.404368 455.252679,317.758614 454.525898,319.344267 C452.323998,321.44995 450.332953,323.27586 448.451797,325.208499 C444.522855,329.245119 440.694137,333.379556 436.748843,337.399899 C426.600667,347.741439 415.102374,356.392392 402.872159,364.093147 C388.108771,373.388839 372.431719,380.786984 355.9136,386.41068 C344.345559,390.349111 332.616527,393.752566 320.509207,395.479266 C309.29127,397.079153 298.028609,398.602081 286.732035,399.34572 C276.317007,400.031306 265.852641,399.500692 255.44929,398.058686 C242.541755,396.269571 230.011424,393.251845 217.993984,388.131284 C198.924451,380.005839 183.065347,367.927542 171.279854,350.739669 C169.946121,348.794498 168.563453,346.882778 167.203487,344.955554 C166.991331,345.061819 166.779175,345.168084 166.56702,345.27435 C167.819235,349.07817 168.994672,352.909285 170.337634,356.68083 C174.852064,369.359274 180.436472,381.502401 188.583166,392.325692 C189.939756,394.127929 191.417817,395.838847 192.75217,397.7428 C189.09519,403.771721 185.089129,409.433449 182.04291,415.570801 C174.599428,430.567428 169.462375,446.424016 165.732922,462.734289 C160.130209,487.237096 157.490959,512.105115 157.209767,537.191977 C157.035087,552.775444 157.622774,568.367453 157.868286,583.955625 C138.503191,583.971097 119.138125,583.991335 99.7730294,584 C92.8384731,584 85.9039483,583.977224 78.9693926,583.965279 C78.0591659,583.963732 77.1489397,583.965093 75.9420977,583.965093 C75.9420977,582.831207 75.9420977,581.93046 75.9420977,581.029651 C75.9420977,526.273405 75.9489116,471.517222 75.9390627,416.761008 C75.93451,391.582548 75.8973436,366.404058 75.897406,340.750778 C75.7478437,324.820263 75.5758267,309.364598 75.4037792,293.908933 C75.3924435,293.61771 75.3811078,293.326455 75.3892847,292.644427 C75.5745261,290.328906 75.8661553,288.40552 75.8869065,286.479194 C76.144281,262.539091 75.1206674,238.57086 77.455033,214.677422 C77.9772458,209.332417 78.5500981,203.989051 79.2642115,198.666976 C80.2684059,191.182773 81.5397308,183.732873 82.4483778,176.238258 C82.7163756,174.027656 83.6081117,173.214978 85.6457995,172.84486 C94.1288148,171.303954 102.328316,168.926744 109.970729,164.7682 C119.208834,159.741387 126.114462,152.4468 131.230672,143.39873 C136.33697,134.368144 137.45195,124.595512 135.777002,114.521663 C134.98992,109.787573 133.527871,105.16552 132.300247,100.204124 C131.643741,100.745011 131.4362,100.830435 131.417709,100.946045 C131.338422,101.441599 131.266103,101.947193 131.277966,102.447063 C131.542928,113.596376 127.862193,123.395976 121.203285,132.216615 C120.450364,133.213988 119.896002,133.758249 118.556756,133.295977 C112.823065,131.316936 107.04273,129.472011 101.322139,127.457058 C100.673623,127.228622 99.9329358,126.27957 99.8504586,125.591044 C99.3811448,121.674258 99.133805,117.731602 98.737151,113.805193 C98.5577634,112.029445 98.2078141,110.270887 97.8948456,108.24269 C97.2124157,108.661794 96.8110232,108.811939 96.5398662,109.08919 C92.1281691,113.600445 87.8961696,118.30393 83.2704277,122.582865 C80.6554277,125.001836 77.3993145,126.728954 74.4248269,128.759672 C74.4176725,128.751658 74.4012883,128.737547 74.3909441,128.524444 C75.0636175,124.681509 75.919984,121.073801 76.388152,117.416505 C77.0488081,112.255374 77.6444866,107.066347 77.8510055,101.872709 C78.0290925,97.3944108 77.6241383,92.8929657 77.4616916,87.9365054 C76.182407,88.7615299 75.4230437,89.2497488 74.6651362,89.7402274 C68.86755,93.4921843 63.0729059,97.2487991 57.2705194,100.99336 C56.1054894,101.7452 54.9600329,102.430725 53.636087,101.157353 C51.3269016,98.9364305 48.9803027,96.7521933 46.5930376,94.6154415 C45.545142,93.6775293 45.3417824,92.8007338 46.0466665,91.531401 C47.7252068,88.5087246 49.305629,85.4311052 50.8970768,82.360913 C51.8896569,80.4460672 52.8301737,78.5043153 54.0447272,76.0728584 C52.70957,76.1411694 51.9845233,76.0967636 51.2922445,76.2266861 C46.0895,77.2031862 40.9036665,78.2766066 35.6842592,79.1509264 C34.839786,79.2923604 33.4179697,78.882293 33.0012922,78.2451815 C27.7509442,70.2171286 22.2249332,62.3282896 17.5799112,53.9550063 C9.93899982,40.1813026 4.92357216,25.338666 1.27871852,10.0244078 C0.832556162,8.14976785 0.836628874,6.56404953 1.92907668,5 C8.73968418,16.0707473 15.9806118,26.8203819 24.608869,36.6027072 C34.6055935,47.9364749 45.8730085,57.7434167 58.9432682,65.3579672 C77.1567137,75.9688523 96.8515342,82.3838742 117.683975,85.3169338 C123.269157,86.1033079 128.81643,85.7251603 134.228698,82.7348834 C147.107986,76.295353 160.638207,72.6705332 173.933537,68.3837536 C177.319484,67.2920295 180.626205,65.9550665 183.969348,64.7307819 C187.25792,64.1504624 190.546522,63.5701429 194.223912,62.9156331 C196.272626,62.6034213 197.951569,62.4564173 199.58935,62.1131754 C214.649354,58.9568626 229.868025,56.9428851 245.197699,55.7119162 C245.640997,55.7250911 246.084294,55.7382656 246.923379,55.7507059 C250.655929,55.4659037 253.989936,54.985266 257.330044,54.9384924 C264.389478,54.8396543 271.452133,54.9557366 278.513301,55.0072679 C282.224821,55.0343525 285.936032,55.1112121 289.647367,55.1655978 M136.412232,413.827267 C134.339174,409.960164 132.266147,406.093091 130.340856,402.501615 C128.303819,406.174755 126.518704,410.183401 124.042086,413.706891 C117.409349,423.143476 105.457321,423.190079 98.679482,413.954049 C96.4449379,410.909061 94.4572385,407.6832 92.0400237,404.066225 C92.6689964,407.496447 93.049731,410.411125 93.7532526,413.245873 C95.5630198,420.538154 98.5066911,427.422302 106.33481,429.706786 C110.895822,431.037854 111.521573,433.861585 111.932815,437.486389 C111.96134,437.737663 111.929161,437.998219 111.976733,438.244542 C113.241213,444.795041 115.275804,450.853762 120.797804,455.311853 C129.056925,461.979819 139.200053,458.028483 143.334306,451.663376 C147.030681,445.972529 148.308603,439.606245 149.066387,433.031826 C149.15447,432.268041 149.82798,431.097795 150.442985,430.938954 C160.929681,428.230709 165.293898,420.647235 166.802032,410.732829 C167.0359,409.195482 167.185617,407.645385 167.374234,406.101168 C165.372721,408.668612 163.885772,411.313512 162.122864,413.759869 C156.803976,421.140839 147.619329,423.033281 140.817486,418.143909 C139.25924,417.023762 138.00752,415.477904 136.412232,413.827267 M413.913248,170.767275 C413.5305,174.14455 414.622685,177.037428 417.343608,178.986761 C419.092144,180.239508 421.250373,180.926162 423.236338,181.841902 C424.983946,182.64774 426.8612,183.236113 428.482195,184.241021 C432.971786,187.024415 434.983891,191.623941 436.798893,196.282524 C437.914307,199.145509 438.832059,202.085361 439.838638,204.990679 C440.07074,204.995135 440.302903,204.999576 440.535005,205.004016 C441.04771,202.403445 441.70784,199.821704 442.043201,197.198496 C442.811484,191.190107 443.580697,185.155492 441.763651,179.181483 C439.46896,171.636597 435.669356,165.164637 427.939386,162.175489 C421.301972,159.608865 419.110665,159.816985 415.457557,165.794956 C414.649072,167.117962 414.44881,168.812 413.913248,170.767275 M167.634122,404.996546 C167.634122,404.996546 167.798995,405.097753 167.798995,405.097753 C167.798995,405.097753 167.778692,404.886782 167.634122,404.996546 Z" id="Shape" fill="#4580BC"></path>
                <path d="M158.907036,583.968255 C158.444571,568.289567 157.85681,552.638711 158.031511,536.996427 C158.312738,511.814881 160.95232,486.853004 166.555736,462.257718 C170.285657,445.885886 175.423355,429.969452 182.867771,414.916224 C185.914372,408.755708 189.920936,403.072611 193.738735,397 C195.202268,397.835189 196.38668,398.883587 197.638681,399.843365 C204.251094,404.912184 210.705222,410.216761 217.575352,414.907837 C221.202434,417.384487 225.564814,418.778323 229.595198,420.661009 C231.770705,434.579674 233.946211,448.498338 235.874749,462.640368 C219.721214,464.397192 203.814648,465.930651 187.908052,467.464109 C187.84037,467.626873 187.772688,467.789637 187.704976,467.952401 C204.680601,472.12754 221.656226,476.302742 238.631851,480.477882 C239.416059,485.290534 240.261723,490.094116 240.970475,494.917888 C242.121061,502.748814 243.182005,510.593034 244.018438,518.642884 C240.99476,519.078246 238.231988,519.285925 235.472314,519.529387 C224.787792,520.471864 214.104789,521.431425 203.420206,522.373157 C196.558316,522.977992 189.69466,523.562824 182.665873,524.111002 C182.084834,524.065403 181.669761,524.065403 181.254658,524.065403 C181.249949,524.186296 181.24521,524.30725 181.240502,524.428143 C181.769688,524.574257 182.298906,524.72031 183.014317,524.931717 C191.204346,526.805177 199.190866,528.695288 207.215919,530.403065 C220.546589,533.239814 233.902039,535.959584 247.24702,538.728619 C248.612267,546.640554 250.048015,554.541059 251.318818,562.468214 C252.214631,568.056107 252.905881,573.677608 253.645237,579.28979 C253.840135,580.769139 253.874549,582.269734 254,584 C222.169522,584 190.646755,584 158.907036,583.968255 Z" id="Path" fill="#E8932C"></path>
                <path d="M75.8258129,128.205258 C78.7981511,126.163015 82.0597564,124.432925 84.6791672,122.009791 C89.3127112,117.723491 93.5518488,113.01191 97.9709872,108.49289 C98.2426016,108.215162 98.6446711,108.064758 99.328252,107.644933 C99.6417484,109.676621 99.9922879,111.438206 100.171978,113.21701 C100.569301,117.150178 100.817058,121.09962 101.287164,125.023147 C101.36978,125.712858 102.111717,126.663544 102.761326,126.892373 C108.491566,128.910794 114.28165,130.758895 120.025013,132.741342 C121.366518,133.20441 121.921815,132.659212 122.676006,131.660123 C129.346145,122.824301 133.033088,113.007833 132.767679,101.839331 C132.755797,101.3386 132.828238,100.832135 132.907659,100.335729 C132.92618,100.21992 133.134072,100.134349 133.791685,99.5925305 C135.021379,104.562466 136.485894,109.192475 137.274305,113.934713 C138.952078,124.025902 137.835217,133.815354 132.720306,142.861484 C127.595466,151.925127 120.678191,159.23227 111.424504,164.267736 C103.7692,168.433438 95.5558691,170.814739 87.0585455,172.358297 C85.0174206,172.729052 84.1241805,173.543129 83.8557307,175.757536 C82.9455511,183.265051 81.6720818,190.727774 80.6661937,198.224859 C79.9508758,203.556095 79.3770572,208.908657 78.8539635,214.262863 C76.5156606,238.197426 77.5410007,262.206912 77.2831922,286.188221 C77.2624059,288.117863 76.9702848,290.04456 76.7942864,292.217754 C68.9457967,290.265856 61.1534598,291.354887 53.6152713,293.535026 C45.1725498,295.976697 36.9504394,299.17984 28.3604778,302 C28.0191375,301.875852 27.9496748,301.803378 27.8802279,301.730904 C30.6055385,293.148074 32.8855785,284.392027 36.1492312,276.018652 C42.8636884,258.791679 54.4711279,245.27684 69.366822,234.467157 C71.7310607,232.751465 73.9374188,230.818569 76.6094767,228.67039 C53.0958069,219.388828 30.1624704,223.731096 6.98691471,228.941563 C19.8486195,192.94821 44.9076678,169.553312 80.1273088,155.563688 C76.4876149,153.218406 73.3918015,151.120165 70.1983866,149.182448 C47.5866442,135.462059 29.9963842,117.038274 17.5761653,93.6481178 C9.03410501,77.561446 3.25666238,60.5962608 0.764171016,42.5632008 C0.164742504,38.2263192 0.0697781323,33.7987058 0.0295714363,29.4101967 C-0.0518351654,20.5247775 0.0547625698,11.6375066 0.110326403,2.75116112 C0.115631485,1.90002271 0.307281827,1.05004277 0.41242177,0.199523972 C0.682190041,0.133013104 0.951958819,0.0665068057 1.22174234,0 C1.86517858,1.28256443 2.50862957,2.56512937 3.1763415,4.03612069 C2.10632726,5.79128106 2.10224768,7.37972876 2.54916259,9.2575954 C6.20016399,24.5982128 11.2240512,39.4663968 18.8778505,53.2638081 C23.5307072,61.6515037 29.066039,69.5539211 34.3252427,77.5957921 C34.742623,78.2340001 36.1668375,78.6447734 37.0127351,78.5030959 C42.2409459,77.6272712 47.4355264,76.5520033 52.6470463,75.5738224 C53.3404928,75.4436762 54.0667624,75.4881585 55.4041717,75.4197299 C54.1875696,77.8553718 53.2454664,79.800466 52.2512121,81.7186076 C50.65708,84.7940844 49.0739921,87.8770009 47.3926207,90.9048801 C46.6865476,92.1763977 46.8902502,93.0547024 47.9399133,93.9942289 C50.331205,96.1346585 52.6817619,98.3226553 54.9948422,100.547401 C56.3210212,101.822964 57.4684097,101.136259 58.6354047,100.383126 C64.4475782,96.632119 70.2519961,92.8690383 76.059361,89.1106234 C76.8185469,88.6193006 77.579191,88.1302414 78.8606334,87.3037969 C79.0233541,92.2687884 79.4289913,96.7779814 79.2506039,101.263987 C79.0437367,106.466565 78.4470535,111.664524 77.7852831,116.834538 C77.3163254,120.498129 76.4585145,124.112046 75.7039821,127.987573 C75.6977153,128.219781 75.7617799,128.212512 75.8258129,128.205258 Z" id="Path" fill="#255387"></path>
                <path d="M229.453149,419.92238 C225.199519,418.070406 220.835291,416.679899 217.206672,414.209165 C210.333632,409.529293 203.87677,404.237385 197.261556,399.180673 C196.009025,398.223187 194.824111,397.177293 193.447594,396.193065 C191.864444,394.45841 190.385572,392.745137 189.028237,390.940418 C180.877069,380.102225 175.289594,367.94238 170.772685,355.24648 C169.428985,351.469742 168.252903,347.633352 167,343.824294 C167.212272,343.717883 167.424545,343.611471 167.636817,343.50506 C168.99753,345.434937 170.380957,347.349289 171.715422,349.297139 C183.507388,366.508677 199.3752,378.603603 218.455206,386.740235 C230.479245,391.867846 243.016457,394.889727 255.931081,396.681306 C266.340145,398.125297 276.810258,398.656641 287.231005,397.970111 C298.533783,397.225448 309.802628,395.700424 321.026726,394.098334 C333.140695,392.369257 344.876168,388.961116 356.450562,385.017262 C372.977751,379.385823 388.663413,371.977492 403.434908,362.669002 C415.671839,354.957644 427.176447,346.294781 437.330196,335.939002 C441.277657,331.913124 445.108477,327.772994 449.039576,323.730817 C450.921766,321.795517 452.913904,319.967093 455,318 C452.205503,326.951389 447.550013,335.130195 442.166908,342.872975 C434.441989,353.984169 425.845421,364.357517 415.10202,372.75711 C411.639965,375.463939 410.507515,379.363016 409.88582,383.389266 C407.751816,397.210667 400.668425,408.156883 390.493418,417.358807 C389.681824,418.092748 388.814513,418.768402 387.94305,419.431599 C387.414631,419.833694 386.828325,420.15959 385.876477,420.771471 C385.248585,412.395181 384.962373,404.214175 381.159009,396.677432 C377.037453,397.996017 374.128919,400.447384 372.92036,404.751253 C369.91638,415.448545 363.448176,423.945191 355.690596,431.599222 C351.274957,435.956048 346.344721,439.608309 340.746865,442.320065 C339.861147,442.74915 338.93911,443.103308 337.543442,443.702732 C339.866477,433.390491 339.925665,423.564136 337.073219,413.717113 C334.596047,414.157322 332.180232,414.480616 329.831415,415.070651 C329.155179,415.240494 328.504108,416.087076 328.12524,416.778781 C321.027284,429.737921 310.697705,439.148701 297.180694,445.074646 C295.05549,446.00635 292.89307,446.853086 290.116236,448 C292.763258,439.185762 293.846808,430.803398 292.927281,421.864218 C290.818595,422.041777 288.683506,422.322897 286.542003,422.385957 C268.543688,422.915907 250.548998,423.304429 232.698685,420.176076 C231.704847,420.001894 230.683306,419.985812 229.453149,419.92238 Z" id="Path" fill="#255387"></path>
                <path d="M296.34646,196.724052 C300.410176,194.558542 304.903581,192.667271 307.051903,188.372401 C308.892935,184.691993 309.828213,180.550284 311.080683,176.586149 C311.377947,175.645265 311.341904,174.598722 311.467317,173.531138 C325.024662,192.824991 324.947717,222.732932 305.872688,243.287191 C285.462246,265.28043 252.979118,266.584733 230.398612,248.358694 C208.836325,230.954556 203.529549,198.272358 218.515768,174.856218 C233.144291,151.998999 263.75225,140.693839 291.587159,156.042287 C288.748389,156.648554 285.792201,157.035061 282.996639,157.926795 C276.767902,159.913684 273.61157,164.881868 271.410352,170.636388 C271.020827,171.65473 270.714245,172.70491 270.144381,173.729967 C266.101085,173.807117 262.171793,173.338963 258.483424,174.077629 C241.803545,177.418138 231.311347,194.000961 234.558002,210.765456 C237.966452,228.365604 253.827517,239.408878 271.104047,236.140682 C289.354757,232.688183 299.749527,216.280823 296.34646,196.724052 Z" id="Path" fill="#E9932C"></path>
                <path d="M239.887428,125.23099 C236.175824,125.262802 232.541184,124.709427 229.183208,125.430657 C215.520008,128.365216 202.303473,132.717108 189.912987,139.273237 C182.056523,143.430308 174.636327,148.233147 168.182079,154.4028 C167.279812,155.265276 166.234201,155.979375 165,156.601976 C167.145158,150.170222 170.733092,144.500121 174.505831,138.956172 C178.402549,133.230027 182.919471,128.006029 188.408268,123.711787 C193.765731,119.520266 199.215767,115.445771 204.728988,111.240682 C198.111131,107.696796 190.938148,105.950236 183.42482,104.997049 C194.885977,98.0584261 207.511293,94.8600828 220.618466,93.5151103 C233.761203,92.1665256 246.807767,93.1030578 259.874503,97.112972 C258.523399,90.620188 254.761739,86.1080506 251.284377,81 C254.430364,81.5808953 257.60785,82.0299602 260.716907,82.7653288 C274.7976,86.0958569 288.219297,91.0793786 300.122898,99.4351951 C314.90923,109.814598 326.008227,123.259944 332.719215,140.046051 C335.580128,147.202153 338.125556,154.507959 340.319312,161.89128 C341.247647,165.015473 340.900879,168.51452 341,172 C336.960063,163.127822 331.65607,155.011479 324.839072,147.884796 C315.445799,138.064802 304.336747,130.850911 291.532088,126.22298 C275.025416,120.256992 258.361994,120.139964 241.569596,124.919374 C241.08653,125.056884 240.584688,125.129135 239.887428,125.23099 Z" id="Path" fill="#255387"></path>
                <path d="M295.280337,196.065215 C298.916543,215.583531 288.500203,231.978641 270.211622,235.428563 C252.899244,238.694319 237.005266,227.65929 233.589744,210.072281 C230.336352,193.320302 240.850321,176.749859 257.564812,173.411843 C261.260834,172.673729 265.198279,173.141534 269.150641,173.197803 C269.2083,180.515278 271.081381,186.914889 276.700532,191.801394 C281.428505,195.912922 286.910549,197.300516 293.055383,196.272438 C293.713427,196.162331 294.387588,196.147895 295.280337,196.065215 Z" id="Path" fill="#255387"></path>
                <path d="M185,63.182297 C181.819591,64.4993824 178.503289,65.8233781 175.107532,66.9045135 C161.773678,71.1497153 148.204253,74.7393778 135.405555,81 C118.080994,58.3528124 112.843668,32.6373239 115.762042,5 C130.092999,34.2576784 152.861539,53.9935966 185,63.182297 Z" id="Path" fill="#265487"></path>
                <path d="M246,54.7523977 C230.727532,56.1371444 215.484285,58.1395939 200.399963,61.2778399 C198.759537,61.6191171 197.077883,61.7652796 195.198248,62 C192.792176,48.4442386 186.563644,36.5701644 179,25 C193.372902,25.0407671 206.748519,27.4859205 219.280719,34.0468377 C229.416804,39.3533103 238.03686,46.471403 246,54.7523977 Z" id="Path" fill="#265387"></path>
                <path d="M433.232076,58.7639017 C433.280352,60.0475879 433.053362,61.2156418 433.287578,62.2843199 C434.989067,70.046282 437.196051,77.725673 438.404441,85.5583498 C439.216472,90.8220335 439.112196,96.3363876 438.604335,101.662349 C437.835846,109.720917 436.473782,117.732106 435.128039,125.724398 C434.562122,129.085077 433.394158,132.346118 432.405906,136 C420.684037,128.873126 411.949787,119.480019 405,107.519029 C407.268341,105.395397 409.654474,103.161398 412.127505,100.787775 C417.751607,96.2688918 420.949149,90.270535 423.632973,84.0042638 C427.496285,74.9841351 429.662282,65.5137207 430.518975,55 C431.660153,56.5504427 432.415311,57.5763573 433.232076,58.7639017 Z" id="Path" fill="#255387"></path>
                <path d="M290,55.2496854 C286.365387,55.3648921 282.685881,55.2872359 279.006068,55.2598706 C272.005223,55.2078053 265.002904,55.0905199 258.003778,55.1903824 C254.692204,55.2376407 251.38668,55.7232596 247.851558,56 C248.789199,45.6689659 248.74498,35.425015 245.719903,25.3760605 C245.476796,24.5684278 245.113623,23.7989087 244.851507,22.9963572 C244.593783,22.2071402 244.393788,21.3983745 244,20 C264.21496,25.6246226 278.855449,37.9242003 290,55.2496854 Z" id="Path" fill="#265487"></path>
                <path d="M76.3178082,293 C76.6555352,308.525624 76.8303968,324.121976 77,339.963208 C69.2637293,341.38193 62.2873213,344.4591 55.6969994,348.511637 C53.9016971,349.615625 52.1022697,350.713024 50,352 C50.7565246,337.69715 53.0452735,324.090094 60.9739734,312.233917 C65.4866457,305.485894 71.0595361,299.435319 76.3178082,293 Z" id="Path" fill="#265487"></path>
                <path d="M247,537 C233.717675,534.528629 220.454422,531.899499 207.215778,529.157289 C199.246125,527.506426 191.314738,525.679306 183.182048,523.75394 C183,523.423948 183.000738,523.271532 183,523.119057 C189.815474,522.545009 196.631748,521.979667 203.446268,521.394989 C214.057092,520.484642 224.666347,519.55706 235.277109,518.645992 C238.017732,518.410644 240.761432,518.209886 243.725354,518 C244.974495,524.269316 246.001998,530.531967 247,537 Z" id="Path" fill="#275487"></path>
                <path d="M238,479 C220.977061,475.155652 203.98853,471.072673 187,466.989755 C187.067764,466.830586 187.135497,466.671417 187.20323,466.512248 C203.121919,465.012661 219.040578,463.513074 235.186614,462 C236.287486,467.578132 237.160978,473.169811 238,479 Z" id="Path" fill="#275487"></path>
                <path d="M27.9139405,301.741556 C27.6907655,301.785318 27.2755125,301.603373 27.0860595,301.254618 C27.4485165,301.230509 27.5851745,301.373209 27.9139405,301.741556 Z" id="Path" fill="#255387"></path>
                <path d="M137.276153,412.421678 C138.763567,413.914849 140.009734,415.453387 141.561068,416.568231 C148.332735,421.434452 157.476635,419.550971 162.771927,412.204948 C164.527013,409.770175 166.007366,407.137798 168,404.58251 C167.812219,406.119416 167.663167,407.662173 167.430337,409.192241 C165.928893,419.059705 161.584037,426.607272 151.143864,429.302693 C150.531588,429.460782 149.861066,430.625488 149.773373,431.385656 C149.018951,437.928947 147.746699,444.265088 144.066722,449.928989 C139.95081,456.263959 129.852681,460.196586 121.6302,453.560192 C116.132697,449.123209 114.107133,443.093174 112.848263,436.573691 C112.800901,436.328535 112.832938,436.069212 112.80454,435.819128 C112.395122,432.211486 111.772147,429.401125 107.23137,428.076359 C99.4379788,425.802693 96.5073667,418.95114 94.7056283,411.693386 C94.0052278,408.872061 93.6261823,405.971182 93,402.557202 C95.4064911,406.157051 97.3853723,409.367638 99.6100031,412.398209 C106.357773,421.590508 118.256777,421.544125 124.860089,412.152222 C127.32572,408.645414 129.102915,404.655749 131.130915,401 C133.047666,404.574471 135.111495,408.423234 137.276153,412.421678 M124.511693,445.184268 C127.297507,446.826073 130.338783,447.649625 133.440032,446.682429 C141.839131,444.062895 146.260117,437.798331 148.582492,429.552962 C144.347653,428.056895 139.775579,427.053696 137.20508,423.076072 C134.796277,419.348625 132.858436,415.317535 130.501866,411.035869 C127.223813,419.696001 123.748144,427.953658 112.961394,429.672183 C115.712149,435.832679 118.430683,441.489651 124.511693,445.184268 Z" id="Shape" fill="#255387"></path>
                <path d="M414.083672,169.848568 C414.591183,168.124531 414.791279,166.445311 415.599088,165.133875 C419.249146,159.208191 421.438625,159.00189 428.070497,161.546066 C435.794015,164.50907 439.590447,170.924424 441.883222,178.40332 C443.698751,184.325078 442.93018,190.306912 442.162539,196.26275 C441.827458,198.863014 441.167878,201.422174 440.655601,204 C440.423694,203.995599 440.191724,203.991197 439.959816,203.986779 C438.954077,201.106873 438.037091,198.192733 436.922608,195.354789 C435.109122,190.736951 433.098696,186.177655 428.612854,183.418605 C426.993212,182.422486 425.117524,181.83926 423.371376,181.04047 C421.387069,180.132739 419.230641,179.45209 417.483564,178.210301 C414.764913,176.278017 413.67364,173.410442 414.083672,169.848568 Z" id="Path" fill="#255387"></path>
                <path d="" id="Path" fill="#255387"></path>
                <path d="M168.459236,404.419315 C168.538581,404.359012 168.560859,404.590702 168.560859,404.590702 C168.560859,404.590702 168.379951,404.479556 168.459236,404.419315 Z" id="Path" fill="#255387"></path>
                <path d="M182.793898,524.066885 C183.003672,524.364728 183.002854,524.595687 182.99915,525 C182.332052,524.959323 181.666007,524.745382 181,524.53135 C181.005926,524.354263 181.01189,524.177086 181.017816,524 C181.540244,524 182.062632,524 182.793898,524.066885 Z" id="Path" fill="#2E5683"></path>
                <path d="M75.6052102,128.496182 C75.4933332,128.526273 75.3672952,128.540585 75.4000712,128.50372 C75.5588232,128.452542 75.5911112,128.480374 75.6052102,128.496182 Z" id="Path" fill="#4580BC"></path>
                <path d="M124.504821,446.006328 C118.527466,442.404962 115.780015,436.757059 113,430.606438 C123.901489,428.890668 127.414129,420.646249 130.72705,412 C133.108687,416.274802 135.067141,420.29943 137.501566,424.020902 C140.099407,427.992149 144.720114,428.993739 149,430.487408 C146.652922,438.719559 142.18491,444.974081 133.696469,447.589415 C130.562233,448.55506 127.488606,447.732829 124.504821,446.006328 Z" id="Path" fill="#447FBB"></path>
            </g>
        </g>
    </g>
</svg>